<?xml version="1.0" encoding="UTF-8" standalone="no"?>
<svg
   width="164.48123mm"
   height="184.99353mm"
   viewBox="0 0 164.48123 184.99353"
   version="1.1"
   id="svg280"
   inkscape:version="1.1.2 (0a00cf5339, 2022-02-04)"
   sodipodi:docname="xubuntu_icon.svg"
   xmlns:inkscape="http://www.inkscape.org/namespaces/inkscape"
   xmlns:sodipodi="http://sodipodi.sourceforge.net/DTD/sodipodi-0.dtd"
   xmlns="http://www.w3.org/2000/svg"
   xmlns:svg="http://www.w3.org/2000/svg"
   xmlns:rdf="http://www.w3.org/1999/02/22-rdf-syntax-ns#"
   xmlns:cc="http://creativecommons.org/ns#"
   xmlns:dc="http://purl.org/dc/elements/1.1/">
  <defs
     id="defs274" />
  <sodipodi:namedview
     id="base"
     pagecolor="#ffffff"
     bordercolor="#666666"
     borderopacity="1.0"
     inkscape:pageopacity="0.0"
     inkscape:pageshadow="2"
     inkscape:zoom="0.35"
     inkscape:cx="307.14286"
     inkscape:cy="364.28571"
     inkscape:document-units="mm"
     inkscape:current-layer="layer1"
     inkscape:document-rotation="0"
     showgrid="false"
     inkscape:window-width="1366"
     inkscape:window-height="691"
     inkscape:window-x="0"
     inkscape:window-y="0"
     inkscape:window-maximized="1"
     inkscape:pagecheckerboard="0" />
  <metadata
     id="metadata277">
    <rdf:RDF>
      <cc:Work
         rdf:about="">
        <dc:format>image/svg+xml</dc:format>
        <dc:type
           rdf:resource="http://purl.org/dc/dcmitype/StillImage" />
        <dc:title />
      </cc:Work>
    </rdf:RDF>
  </metadata>
  <g
     inkscape:label="Capa 1"
     inkscape:groupmode="layer"
     id="layer1"
     transform="translate(-24.57587,-51.904025)">
    <ellipse
       style="fill:#ffffff;stroke:none;stroke-width:0.192025"
       id="path87"
       cx="107.20465"
       cy="150.50197"
       rx="81.664116"
       ry="81.991318" />
    <g
       id="g222"
       transform="matrix(0.76097119,0,0,0.64061782,-292.47358,18.451202)">
      <path
         style="fill:#f5d0a3;stroke-width:1.11136"
         d="m 519.38384,313.27636 c -7.33206,-0.68501 -12.87503,-2.83002 -15.50645,-6.00069 -0.79891,-0.96262 -2.30926,-4.94119 -3.35633,-8.84125 l -1.90377,-7.09102 4.09262,-0.54894 c 2.25095,-0.30191 6.79839,-2.33101 10.10544,-4.50908 5.47986,-3.60916 6.69606,-3.95424 13.72138,-3.8934 6.92305,0.06 8.31646,0.47038 13.6738,4.02745 3.78717,2.51454 7.3625,3.99022 9.79207,4.04158 4.35328,0.092 4.37449,0.17146 2.21297,8.29286 -3.29343,12.37429 -12.45402,16.42629 -32.83173,14.52249 z m -27.07577,-29.30829 c -6.11661,-2.25918 -9.9072,-6.33448 -17.09339,-18.37727 -11.36309,-19.04255 -11.95451,-21.13452 -11.95451,-42.28616 0,-10.08559 0.40469,-20.83799 0.89931,-23.89423 0.87532,-5.40855 0.80846,-5.61045 -2.50625,-7.56787 -4.10887,-2.4264 -5.96014,-5.79464 -8.38961,-15.26428 -1.01237,-3.94601 -3.55327,-10.98835 -5.64645,-15.64964 -2.09319,-4.66129 -3.80579,-9.30158 -3.80579,-10.31177 0,-2.78685 6.52711,-15.12526 8.37688,-15.83508 0.89394,-0.34304 1.62536,-1.58612 1.62536,-2.76241 0,-2.53706 2.36723,-3.66392 5.85697,-2.78805 2.5443,0.63858 13.78127,9.58312 25.56806,20.35197 l 6.41943,5.86504 6.44724,-3.27624 c 18.09797,-9.19673 35.82972,-8.85185 59.77269,1.16257 3.47184,1.45213 3.53546,1.41581 15.28083,-8.72428 6.48698,-5.60037 13.75515,-11.47999 16.1515,-13.06582 5.18629,-3.43212 9.37469,-3.28358 9.89085,0.35076 0.19532,1.37531 0.81327,2.50056 1.37321,2.50056 1.68625,0 7.71821,13.02258 7.71821,16.6631 0,1.8646 -1.47459,6.64233 -3.27689,10.61719 -1.80228,3.97486 -4.06399,10.29941 -5.02601,14.05455 -2.05291,8.01329 -5.10147,13.3389 -9.37938,16.38502 l -3.07788,2.19166 1.46605,6.99695 c 1.92098,9.16826 1.88023,30.64079 -0.0757,39.86751 -1.86886,8.81612 -6.63735,19.06407 -13.40556,28.8099 -6.48309,9.33525 -9.26965,11.70222 -16.43626,13.96129 -7.71432,2.43172 -16.33861,0.82711 -23.10469,-4.29882 -9.28695,-7.03569 -10.98193,-7.15391 -17.99254,-1.25488 -7.00844,5.89721 -18.21876,8.33296 -25.67569,5.57873 z m 6.033,-76.26156 c 4.02944,-2.1565 2.37114,-8.85178 -2.19242,-8.85178 -5.29032,0 -7.50269,4.66687 -3.91374,8.25581 2.04793,2.04794 3.18564,2.15898 6.10616,0.59597 z m 62.1073,-0.44938 c 0.73026,-0.8799 1.16658,-3.00538 0.9696,-4.72327 -0.29026,-2.53145 -0.97968,-3.19418 -3.63742,-3.49663 -5.19935,-0.59169 -7.98987,4.50431 -4.42086,8.07331 2.18075,2.18075 5.34615,2.24621 7.08868,0.14659 z m -88.853,-37.34983 c 3.36186,-1.38128 7.23741,-3.57104 8.61232,-4.86613 l 2.49984,-2.35471 -8.51865,-7.75498 c -9.18531,-8.36187 -13.53746,-11.62585 -15.51716,-11.63741 -0.6899,-0.004 -1.87616,1.49383 -2.63613,3.32857 -1.58877,3.83561 0.14462,18.4348 3.07464,25.8957 l 1.65963,4.22601 2.35651,-2.16282 c 1.29609,-1.18955 5.10714,-3.29296 8.469,-4.67423 z m 123.2479,-1.47697 c 3.05093,-10.27709 3.52998,-21.09157 1.0444,-23.57715 -1.59054,-1.59054 -2.09121,-1.59845 -5.0288,-0.0794 -1.79431,0.92787 -7.20841,5.53194 -12.03133,10.23126 -10.04259,9.78524 -10.12224,9.25462 2.23676,14.90027 3.66749,1.67532 7.35453,3.87317 8.19343,4.88411 0.83891,1.01094 1.89131,1.83807 2.33867,1.83807 0.44737,0 1.90845,-3.68874 3.24687,-8.1972 z"
         id="path248" />
      <path
         style="fill:#e9b989;stroke-width:1.11136"
         d="m 517.13366,312.29249 c -9.95069,-1.36819 -13.39369,-4.10227 -15.49434,-12.30403 -0.70449,-2.75061 -1.53489,-5.87631 -1.84532,-6.94599 -0.44261,-1.52516 0.11131,-1.94561 2.56671,-1.94824 1.72212,-0.002 6.33132,-1.93019 10.24265,-4.2852 6.8542,-4.12691 7.39374,-4.26167 14.9107,-3.72382 6.23303,0.44596 8.7763,1.21747 12.66507,3.84198 2.67625,1.80617 6.87072,3.55285 9.32106,3.88151 3.03897,0.40761 4.27912,1.05631 3.90134,2.04076 -0.30459,0.79375 -1.12238,3.55472 -1.8173,6.1355 -1.70997,6.35031 -3.87328,9.38768 -8.0934,11.3634 -4.39219,2.05628 -18.1572,3.07161 -26.35717,1.94413 z m 31.62243,-27.91723 c -6.5704,-0.89298 -9.42379,-2.25309 -15.40246,-7.34189 -2.4022,-2.04464 -5.40447,-3.71754 -6.67171,-3.71754 -1.26724,0 -4.80303,1.7875 -7.85732,3.97221 -7.6934,5.50305 -12.06821,7.14139 -19.06956,7.14139 -9.47995,0 -13.87314,-2.89507 -20.8835,-13.76201 -13.72146,-21.26999 -15.64133,-27.40896 -15.50712,-49.5855 0.0611,-10.09014 0.68127,-19.28288 1.49716,-22.1912 1.07323,-3.82559 1.08835,-5.06665 0.0659,-5.40747 -0.72986,-0.24329 -2.96094,-1.87694 -4.95796,-3.63035 -2.96441,-2.60279 -4.17459,-5.14773 -6.59258,-13.86381 -1.6289,-5.8717 -4.19747,-13.1146 -5.70792,-16.09534 -1.51046,-2.98073 -2.74628,-7.05358 -2.74628,-9.05077 0,-4.34865 5.36417,-15.11182 7.9432,-15.93798 1.17479,-0.37633 1.62735,-1.36415 1.26311,-2.75701 -0.80415,-3.07509 2.46992,-3.99487 6.73158,-1.89108 1.931,0.95324 9.69532,7.09284 17.25406,13.64355 l 13.74315,11.91039 6.817,-3.34586 c 6.5492,-3.21442 12.66245,-4.95744 22.54104,-6.42694 6.7284,-1.00089 24.22494,2.33441 32.51025,6.19731 6.08584,2.83742 7.37079,3.09937 8.89088,1.81247 0.97729,-0.82737 6.17919,-5.30778 11.55978,-9.95647 15.85397,-13.69741 24.11358,-18.28012 24.11358,-13.37904 0,1.03029 0.94113,2.90571 2.09138,4.1676 3.27017,3.58754 7.91086,13.09603 7.91086,16.20885 0,1.55023 -1.6912,6.34755 -3.75823,10.6607 -2.06703,4.31316 -4.31761,10.45041 -5.00129,13.63834 -1.65144,7.70037 -3.73311,11.49606 -8.42649,15.36475 l -3.89606,3.21146 1.84053,12.72543 c 2.19058,15.14555 0.99402,30.67714 -3.31878,43.0786 -2.68756,7.72805 -12.9006,24.34619 -17.74544,28.87446 -4.45314,4.16215 -12.69945,6.6204 -19.23076,5.73275 z m -48.96736,-77.86937 c 3.36528,-4.80461 -2.14455,-10.31444 -6.94916,-6.94916 -2.58469,1.81038 -3.1044,5.87966 -1.01745,7.96661 2.08694,2.08694 6.15622,1.56723 7.96661,-1.01745 z m 61.19171,0.60465 c 3.52671,-3.5267 0.78015,-8.67292 -4.30876,-8.07331 -4.2424,0.49987 -5.88615,3.22929 -4.1886,6.95503 1.51232,3.31918 5.74008,3.87557 8.49736,1.11828 z m 33.87868,-37.32964 c 3.53416,-10.97323 4.2017,-19.55785 1.87126,-24.06443 -1.00714,-1.9476 -2.09491,-3.54108 -2.41726,-3.54108 -1.50316,0 -8.75863,5.75955 -16.40372,13.02163 l -8.40763,7.98644 3.33427,2.8056 c 1.83384,1.54308 5.87429,3.6928 8.97877,4.77716 3.10447,1.08436 6.45612,3.08109 7.44811,4.43719 0.99199,1.3561 2.08027,2.48135 2.41839,2.50056 0.33812,0.0192 1.76813,-3.54617 3.17781,-7.92307 z m -130.85062,4.68297 c 1.27733,-1.19002 4.81206,-3.05893 7.85496,-4.15314 3.04289,-1.09421 6.79578,-3.16021 8.33975,-4.59112 l 2.80723,-2.60165 -5.4297,-5.55338 c -7.13102,-7.29347 -18.13394,-15.56758 -19.5434,-14.69649 -0.61404,0.3795 -1.77708,2.27113 -2.58452,4.20362 -1.2268,2.93613 -1.20554,5.0266 0.12935,12.71886 1.55142,8.94001 4.10528,16.83697 5.44504,16.83697 0.36238,0 1.70395,-0.97366 2.98129,-2.16367 z"
         id="path246" />
      <path
         style="fill:#e8a65b;stroke-width:1.11136"
         d="m 518.10097,312.2406 c -10.6979,-1.07562 -15.05418,-4.68103 -16.81802,-13.91918 -0.35011,-1.83374 -0.97515,-4.20927 -1.38898,-5.27895 -0.6239,-1.6127 -0.11519,-1.94974 2.97841,-1.97333 2.31742,-0.0177 6.02699,-1.49128 9.7918,-3.88976 5.46393,-3.48094 6.8324,-3.85851 13.892,-3.83286 7.00983,0.0254 8.46658,0.43335 13.89199,3.88976 3.66494,2.33484 7.46315,3.86131 9.60786,3.86131 h 3.54688 l -2.15607,6.92747 c -2.4454,7.85709 -5.28495,11.43382 -10.27707,12.94513 -5.19797,1.57362 -14.79614,2.1022 -23.0688,1.27041 z m -27.0568,-29.55534 c -5.50795,-2.85877 -9.20061,-7.09699 -15.7581,-18.08618 -9.33787,-15.64862 -11.47022,-23.50192 -11.47022,-42.24402 0,-8.42192 0.54755,-18.27452 1.21677,-21.89466 1.09697,-5.93411 1.01916,-6.69271 -0.79048,-7.7058 -5.38107,-3.01248 -7.87035,-6.88423 -10.35864,-16.11148 -1.39878,-5.18704 -3.98717,-12.4871 -5.752,-16.22235 -1.76482,-3.73525 -3.20876,-8.18239 -3.20876,-9.88253 0,-3.57229 5.9137,-14.5037 8.35254,-15.43956 0.90733,-0.34818 1.6497,-1.89903 1.6497,-3.44633 0,-6.49324 5.91358,-2.86744 29.36258,18.00314 3.61884,3.22092 7.18166,5.85621 7.91738,5.85621 0.73571,0 3.52613,-1.21269 6.20092,-2.69488 14.90317,-8.2583 39.69985,-8.18332 56.3432,0.17036 4.02802,2.02177 6.37512,2.63186 7.35949,1.91298 0.79491,-0.58052 6.06632,-5.05639 11.71424,-9.94638 18.22393,-15.77831 24.46758,-19.04858 24.46758,-12.81551 0,1.24168 0.45707,2.2576 1.01571,2.2576 1.48861,0 8.98653,13.85096 8.98653,16.60088 0,1.29124 -1.76736,5.85723 -3.92747,10.14662 -2.1601,4.2894 -4.40466,10.31518 -4.9879,13.39062 -1.47792,7.79305 -4.05957,12.74745 -8.58718,16.47948 l -3.87639,3.19525 1.24292,7.13732 c 1.8457,10.5988 1.55551,31.80498 -0.56363,41.18801 -2.05853,9.11468 -5.75182,16.82194 -13.41909,28.00338 -4.24825,6.19535 -6.56322,8.40187 -11.36844,10.83576 -10.04196,5.08635 -20.40724,3.43535 -29.70955,-4.73219 -2.36283,-2.0746 -5.01198,-3.32517 -7.04388,-3.32517 -2.03191,0 -4.68106,1.25057 -7.04389,3.32517 -8.22073,7.21789 -20.56291,9.88559 -27.96394,6.04426 z m 8.81149,-75.57472 c 2.56663,-2.56662 2.13149,-5.72954 -1.0775,-7.83216 -3.97404,-2.60389 -8.28967,-0.63825 -8.28967,3.77569 0,1.7246 0.60013,3.73577 1.33363,4.46927 1.87014,1.87014 5.9608,1.65994 8.03354,-0.4128 z m 61.53757,0.4128 c 3.10454,-3.10454 -0.27192,-9.77997 -4.94675,-9.77997 -3.86297,0 -6.34454,6.93501 -3.49958,9.77997 1.71918,1.71918 6.72715,1.71918 8.44633,0 z M 472.8334,170.01322 c 3.43153,-1.27773 7.15007,-3.3297 8.26343,-4.55994 1.98354,-2.19179 1.89152,-2.3718 -4.57211,-8.94484 -3.62801,-3.68942 -8.99322,-8.4819 -11.92269,-10.64995 -5.08287,-3.76176 -5.42284,-3.85455 -7.43868,-2.03023 -1.16182,1.05143 -2.40479,3.24299 -2.76218,4.87014 -0.80583,3.66892 2.05715,19.24894 4.57657,24.90517 l 1.87071,4.19987 2.8729,-2.73353 c 1.5801,-1.50345 5.68052,-3.77896 9.11205,-5.05669 z m 122.09608,0.77968 c 1.31997,-3.8203 2.6766,-10.69684 3.01472,-15.2812 0.53407,-7.24123 0.32281,-8.69428 -1.6097,-11.07116 l -2.22446,-2.73596 -4.30015,2.9152 c -2.36509,1.60336 -7.86879,6.42156 -12.23046,10.70711 l -7.93031,7.79192 2.92919,2.78747 c 1.61105,1.53311 5.80688,3.8591 9.32405,5.16887 3.51717,1.30977 6.91053,3.34493 7.54078,4.52258 1.86455,3.48394 2.95127,2.5322 5.48634,-4.80483 z"
         id="path244" />
      <path
         style="fill:#f39212;stroke-width:1.11136"
         d="m 519.0638,312.21268 c -10.92546,-1.07118 -15.92806,-5.66115 -17.8654,-16.39181 -0.56743,-3.14289 -0.34659,-3.61192 1.70057,-3.61192 1.29397,0 5.44536,-1.95321 9.22531,-4.34046 6.39087,-4.03621 7.43683,-4.33693 14.9216,-4.29007 4.61477,0.0289 8.60927,0.60782 9.36218,1.35689 2.52235,2.50947 11.52904,7.27364 13.75085,7.27364 2.13473,0 2.17335,0.25738 0.82102,5.47078 -2.59911,10.01981 -5.49886,12.71377 -15.08687,14.01621 -2.66197,0.3616 -5.84017,0.79221 -7.06267,0.95691 -1.22249,0.16471 -5.61746,-0.0333 -9.76659,-0.44017 z m -25.24124,-29.06466 c -6.49621,-1.88671 -10.24509,-5.6929 -17.48035,-17.74754 -10.50849,-17.50816 -11.77491,-21.81733 -11.88154,-40.4288 -0.049,-8.55747 0.32862,-19.4349 0.8392,-24.17207 0.74375,-6.90036 0.63325,-8.62039 -0.55568,-8.65001 -1.91548,-0.0477 -5.83702,-3.33386 -7.30519,-6.12152 -0.63052,-1.19719 -2.21089,-6.08224 -3.51193,-10.85567 -1.30105,-4.77342 -3.53767,-11.02482 -4.97027,-13.89199 -4.44664,-8.8994 -4.51988,-10.79982 -0.71989,-18.67887 1.88184,-3.90188 4.12328,-7.09432 4.98098,-7.09432 0.86169,0 1.71679,-1.32913 1.91111,-2.97054 0.19341,-1.63379 0.88503,-3.14521 1.53693,-3.35871 1.87372,-0.61366 9.36259,4.89116 22.74133,16.71638 l 12.37721,10.93998 6.40144,-3.41193 c 16.49433,-8.79139 38.64327,-8.86388 55.72733,-0.18239 l 6.65655,3.38262 12.46997,-10.63209 c 13.65329,-11.641 21.71575,-17.40059 23.5255,-16.80595 0.64318,0.21134 1.33325,1.50091 1.53347,2.86572 0.20022,1.3648 1.07542,2.75445 1.94488,3.08809 0.86946,0.33364 1.58084,1.18719 1.58084,1.89677 0,0.70959 1.17254,3.03161 2.60565,5.16006 4.59644,6.82661 4.55522,8.99946 -0.36536,19.26042 -2.45466,5.11873 -4.46301,10.03554 -4.46301,10.92626 0,0.89071 -0.74252,4.1198 -1.65003,7.17575 -1.52341,5.12986 -4.78096,9.42962 -9.82116,12.9633 -1.94273,1.36204 -1.94849,1.82239 -0.14219,11.37829 1.40362,7.42565 1.71633,13.06843 1.22937,22.18378 -1.01826,19.06084 -4.20057,28.29666 -15.31296,44.44184 -5.57729,8.10326 -10.27967,11.48684 -18.46146,13.28386 -5.26484,1.15636 -14.33288,-1.87726 -21.42214,-7.16655 -6.9387,-5.17697 -8.92296,-5.17541 -15.40392,0.0121 -7.4364,5.95228 -17.40057,8.58311 -24.59468,6.49371 z m 6.0331,-76.03748 c 2.56663,-2.56662 2.13149,-5.72954 -1.0775,-7.83216 -3.97404,-2.60389 -8.28967,-0.63825 -8.28967,3.77569 0,1.7246 0.60013,3.73577 1.33363,4.46927 1.87014,1.87014 5.9608,1.65994 8.03354,-0.4128 z m 61.53757,0.4128 c 3.10454,-3.10454 -0.27192,-9.77997 -4.94675,-9.77997 -3.86297,0 -6.34454,6.93501 -3.49958,9.77997 1.71918,1.71918 6.72715,1.71918 8.44633,0 z m 33.9455,-37.28612 c 4.00626,-12.77125 4.64422,-19.27725 2.3619,-24.08688 -1.06738,-2.24936 -2.70245,-3.97495 -3.76641,-3.97495 -2.52527,0 -7.6039,3.86346 -16.98912,12.92413 -5.98428,5.77734 -7.57167,7.93735 -6.80025,9.25336 0.55349,0.9442 4.86225,3.59911 9.57504,5.89978 4.71278,2.30068 9.18901,5.17632 9.94717,6.39032 0.75816,1.214 1.73652,2.20728 2.17414,2.20728 0.43762,0 2.0115,-3.87587 3.49753,-8.61304 z m -131.82629,5.35181 c 0.73843,-1.18242 4.32267,-3.23644 7.96497,-4.56449 7.14544,-2.60536 11.8904,-6.63612 10.88776,-9.24895 -0.99073,-2.5818 -21.04259,-19.6002 -23.09386,-19.6002 -4.61851,0 -6.34988,7.28776 -4.40036,18.52215 1.3644,7.8625 4.80746,17.04136 6.39236,17.04136 0.49858,0 1.51069,-0.96744 2.24913,-2.14987 z"
         id="path242" />
      <path
         style="fill:#d06901;stroke-width:1.11136"
         d="m 515.21624,299.18451 c -4.22846,-0.52474 -4.64629,-2.53159 -1.3892,-6.67231 1.22249,-1.55414 2.22272,-3.65848 2.22272,-4.6763 0,-2.20964 2.10087,-4.51783 4.11203,-4.51783 0.85945,0 1.44477,1.33026 1.44477,3.28357 0,2.04578 1.07829,4.36185 2.86049,6.14404 3.03393,3.03394 3.11481,5.56642 0.17851,5.58991 -0.97392,0.008 -2.13947,0.38289 -2.59011,0.83352 -0.45064,0.45065 -1.36113,0.73931 -2.02332,0.64149 -0.66218,-0.0978 -2.82934,-0.37956 -4.81589,-0.62609 z m 13.495,-0.50019 c -0.29005,-0.46932 0.20037,-2.26058 1.08982,-3.98058 0.88945,-1.72 1.96577,-4.98542 2.39182,-7.25648 0.42605,-2.27105 1.09407,-4.12153 1.48448,-4.11218 1.54339,0.037 3.22527,1.76745 3.93746,4.05117 0.41184,1.32062 1.97958,3.20757 3.48387,4.19321 3.42214,2.24228 3.54013,5.65289 0.2345,6.77857 -3.40076,1.15807 -11.97095,1.37962 -12.62195,0.32629 z m -39.5276,-17.8725 c -7.19233,-4.39453 -12.04531,-12.45528 -12.00706,-19.9436 0.038,-7.44149 3.70264,-13.96702 12.68557,-22.58887 6.72501,-6.45469 8.47482,-8.88564 10.09459,-14.02416 2.74274,-8.70098 1.80467,-11.60105 -4.0046,-12.38023 -4.69892,-0.63026 -9.37327,-4.02441 -10.52056,-7.63921 -0.44035,-1.38742 -1.72091,-2.04694 -3.97445,-2.04694 -4.15048,0 -3.32099,-1.54559 2.39433,-4.46132 5.42838,-2.76935 13.343,-2.89494 16.50862,-0.26196 1.28608,1.06968 3.28214,3.91403 4.43569,6.32076 l 2.09736,4.37589 0.81731,-4.83763 c 0.44952,-2.66069 2.00965,-8.34324 3.46695,-12.6279 1.45731,-4.28465 2.64965,-8.63242 2.64965,-9.66172 0,-1.02929 1.3772,-4.60177 3.06046,-7.93884 l 3.06045,-6.06739 -6.67237,2.076 c -3.66981,1.1418 -8.32633,3.05148 -10.34782,4.24374 -4.38175,2.58431 -4.65976,2.62105 -4.65976,0.61582 0,-2.41607 7.26207,-8.20224 11.91674,-9.49486 4.98265,-1.38369 14.01536,-1.56593 13.21231,-0.26657 -0.30988,0.50139 2.20356,0.41008 5.5854,-0.2029 4.38172,-0.79421 7.97748,-0.73681 12.51184,0.19975 3.49966,0.72284 7.70822,1.31426 9.35236,1.31426 2.97847,0 4.13468,1.65571 1.71861,2.46107 -0.93856,0.31285 -0.91502,1.08823 0.09,2.96619 1.86554,3.4858 1.02308,3.88247 -3.58182,1.68654 -4.79972,-2.28882 -6.7911,-1.63351 -9.20168,3.02803 -1.6391,3.16967 -1.68458,4.3102 -0.39005,9.78158 0.80596,3.40645 2.86504,8.144 4.57573,10.52789 1.71071,2.38389 3.11037,5.04508 3.11037,5.91377 0,0.89203 1.62909,-0.14792 3.74315,-2.38947 3.12976,-3.31853 4.50287,-3.96889 8.37947,-3.96889 4.45957,0 12.53834,3.20096 13.98452,5.54092 0.4106,0.66437 -0.64395,1.12724 -2.56816,1.12724 -2.59103,0 -3.55434,0.69892 -4.66757,3.38649 -1.55263,3.74837 -6.1104,6.61575 -10.5159,6.61575 -4.25619,0 -4.47192,2.38779 -1.07866,11.9389 2.6017,7.32311 4.20183,9.79265 10.6267,16.40077 11.37749,11.70197 13.30765,18.38166 8.34963,28.89535 -4.45393,9.44474 -11.43527,13.892 -21.80774,13.892 -6.60934,0 -11.14566,-1.73461 -17.13265,-6.55121 -6.78008,-5.45465 -8.78837,-5.51759 -16.03311,-0.50244 -8.6396,5.98075 -11.51037,7.05454 -18.8426,7.04796 -4.60762,-0.004 -7.45283,-0.68684 -10.42127,-2.50056 z m 10.67202,-73.70128 c 2.56663,-2.56662 2.13149,-5.72954 -1.0775,-7.83216 -3.97404,-2.60389 -8.28967,-0.63825 -8.28967,3.77569 0,1.7246 0.60013,3.73577 1.33363,4.46927 1.87014,1.87014 5.9608,1.65994 8.03354,-0.4128 z m 61.53757,0.4128 c 3.10454,-3.10454 -0.27192,-9.77997 -4.94675,-9.77997 -3.86297,0 -6.34454,6.93501 -3.49958,9.77997 1.71918,1.71918 6.72715,1.71918 8.44633,0 z m -82.61261,21.39198 c -5.82776,-2.36223 -8.01711,-9.52205 -4.99841,-16.34632 1.17349,-2.65286 2.55468,-4.82339 3.06932,-4.82339 0.51463,0 0.9357,2.73642 0.9357,6.08093 0,5.21316 0.46573,6.56705 3.26359,9.48739 1.79498,1.87355 4.4027,3.69235 5.79495,4.04178 1.39225,0.34944 2.53136,1.08123 2.53136,1.62621 0,1.22655 -7.52285,1.17927 -10.59651,-0.0666 z m 83.94624,0.16938 c 0,-0.48845 1.67872,-1.49513 3.73049,-2.23706 5.74905,-2.07888 7.63667,-4.92689 8.4226,-12.70785 l 0.70199,-6.94986 2.45918,3.88976 c 1.35256,2.13936 2.46106,5.31293 2.46334,7.05236 0.006,4.09172 -2.98476,9.10399 -6.34428,10.63469 -3.0656,1.39678 -11.43332,1.62948 -11.43332,0.31796 z m -9.30234,-34.44208 c -0.80863,-1.30837 3.53898,-7.9 6.31573,-9.57561 1.63297,-0.9854 2.4223,-0.71872 4.1676,1.40804 1.1842,1.44303 2.15309,3.5685 2.15309,4.72328 0,1.73304 -0.83432,2.0996 -4.77884,2.0996 -2.62837,0 -5.32254,0.54369 -5.98704,1.2082 -0.75338,0.75337 -1.45754,0.80476 -1.87054,0.13649 z m -62.10251,-1.05022 c -5.9396,-0.46835 -6.53845,-1.72761 -2.97558,-6.25707 3.03731,-3.86132 4.77914,-3.69378 8.19798,0.78855 3.07756,4.0349 3.63984,6.40148 1.44575,6.08509 -0.76406,-0.11018 -3.76473,-0.38763 -6.66815,-0.61657 z m -30.59993,-4.15256 c -2.57543,-2.16709 -3.89147,-5.00747 -6.23619,-13.45944 -1.63453,-5.89199 -4.20486,-13.02885 -5.71184,-15.8597 -1.50697,-2.83085 -2.73995,-6.9634 -2.73995,-9.18345 0,-4.29532 4.78682,-14.09296 7.36961,-15.08407 0.8367,-0.32107 1.52127,-1.69718 1.52127,-3.05803 0,-1.36085 0.31346,-2.78773 0.69658,-3.17085 1.34009,-1.3401 7.73977,2.94615 20.21666,13.54031 6.91792,5.87403 14.10605,11.96767 15.97362,13.54143 l 3.39557,2.86137 -7.30776,9.36358 c -4.01927,5.14997 -9.45701,11.07617 -12.08386,13.16933 -2.62686,2.09317 -5.9376,5.21887 -7.35721,6.946 -3.14785,3.82978 -3.62396,3.85399 -7.7365,0.39352 z m 3.8862,-14.33465 c 1.3527,-1.42741 5.50616,-3.70618 9.22991,-5.06393 4.84034,-1.76488 7.13895,-3.2774 8.06307,-5.30563 1.21562,-2.66798 0.84711,-3.25909 -6.18551,-9.92183 -4.11297,-3.89665 -9.59499,-8.61827 -12.18227,-10.49248 l -4.70415,-3.40767 -2.50785,2.91556 c -2.82936,3.28932 -3.23026,8.65099 -1.38154,18.4768 1.3752,7.3091 4.58859,15.42993 6.09751,15.40952 0.61125,-0.008 2.21812,-1.18292 3.57083,-2.61034 z m 118.97466,13.27363 c -1.67098,-2.09422 -5.27061,-5.41091 -7.99918,-7.37042 -2.72855,-1.9595 -7.06778,-6.62246 -9.64271,-10.36212 -2.57493,-3.73966 -5.6086,-7.83909 -6.74149,-9.10985 -2.03723,-2.28516 -1.98964,-2.36691 4.34568,-7.46542 3.52301,-2.83522 11.64651,-9.44194 18.05225,-14.6816 11.62986,-9.51282 15.60369,-11.18879 16.22983,-6.84498 0.16159,1.12108 1.0027,2.62141 1.86912,3.33408 2.68417,2.20782 7.63194,11.79578 7.71956,14.9592 0.0458,1.65382 -1.5022,6.14532 -3.44001,9.9811 -1.93782,3.83578 -4.31665,10.08718 -5.2863,13.89199 -0.96965,3.80482 -2.44641,8.249 -3.28167,9.87597 -1.4201,2.7661 -6.57409,7.59984 -8.10328,7.59977 -0.37601,-2e-5 -2.05081,-1.71349 -3.7218,-3.80772 z m 9.95293,-12.07244 c 2.44779,-5.37232 6.07512,-22.40869 5.51115,-25.88404 -0.32327,-1.99209 -1.4414,-4.92478 -2.48471,-6.51709 l -1.89696,-2.89511 -4.23241,2.5275 c -4.31482,2.57671 -21.03792,18.21618 -21.03792,19.67471 0,1.88382 5.46371,5.64735 11.42681,7.87106 3.72357,1.38856 7.16558,3.52544 8.18518,5.08153 2.18962,3.34179 3.05832,3.36892 4.52886,0.14144 z m -82.8998,-18.38813 c 1.77533,-2.84274 5.65285,-4.62927 10.0475,-4.62927 3.01074,0 3.24162,0.21237 1.93826,1.78282 -1.63572,1.97092 -4.15675,3.08626 -9.70314,4.29281 -3.49366,0.76 -3.61321,0.68426 -2.28262,-1.44636 z m 24.93586,0.0454 c -7.23549,-2.50211 -8.37054,-5.26032 -1.80217,-4.37932 4.40883,0.59135 8.95263,3.34918 8.95263,5.43374 0,1.26615 -0.76707,1.15304 -7.15046,-1.05441 z"
         id="path240" />
      <path
         style="fill:#626467;stroke-width:1.11136"
         d="m 515.21624,299.18451 c -4.24892,-0.52729 -4.8469,-3.29071 -1.3892,-6.41988 1.22249,-1.10635 2.22272,-3.08428 2.22272,-4.39542 0,-2.6763 1.93331,-5.05114 4.11203,-5.05114 0.87371,0 1.44477,1.35722 1.44477,3.43378 0,2.02653 0.88513,4.18997 2.15978,5.27896 2.85666,2.44055 3.45127,6.28598 0.97489,6.30478 -1.02654,0.008 -2.23514,0.38289 -2.68578,0.83352 -0.45064,0.45065 -1.36113,0.73931 -2.02332,0.64149 -0.66218,-0.0978 -2.82934,-0.37956 -4.81589,-0.62609 z m 13.42961,-0.62182 c -0.30114,-0.47855 0.49239,-2.63262 1.76339,-4.7868 1.271,-2.1542 2.31091,-5.44197 2.31091,-7.30617 0,-2.63415 0.39174,-3.23914 1.75794,-2.71488 0.96686,0.37103 1.96709,0.67459 2.22272,0.67459 0.25563,0 0.46478,0.96617 0.46478,2.14705 0,1.18086 1.50034,3.21537 3.33408,4.52111 3.86049,2.74891 4.5137,6.66815 1.11136,6.66815 -1.22249,0 -2.22272,0.4372 -2.22272,0.97156 0,1.19602 -9.98205,1.03377 -10.74246,-0.17461 z m 21.85606,-22.40691 c -7.21319,-2.02236 -11.1136,-3.74775 -11.1136,-4.91626 0,-1.7611 2.90366,-2.23316 7.36683,-1.19765 6.38856,1.48222 7.08085,1.31336 7.08085,-1.72716 0,-2.18372 -0.56494,-2.7784 -2.63948,-2.7784 -5.00674,0 -9.58548,-1.39353 -9.58548,-2.91732 0,-0.86763 1.14083,-1.52812 2.63948,-1.52812 1.45171,0 4.22724,-0.31754 6.16784,-0.70566 4.04063,-0.80813 4.07018,0.40979 -0.45479,-18.74313 -4.12817,-17.47338 -9.65428,-47.41285 -8.89198,-48.17516 1.03793,-1.03792 4.93796,4.39059 5.71859,7.95979 l 0.68407,3.12767 1.88085,-2.86719 c 4.27427,-6.51575 10.20458,-7.80829 18.51362,-4.03513 6.02454,2.73575 7.09768,4.53675 2.70326,4.53675 -1.86981,0 -3.39967,0.46174 -3.39967,1.02609 0,2.85268 -6.01262,7.91141 -10.19884,8.58081 -2.44162,0.39043 -4.6968,1.38094 -5.01155,2.20114 -0.31473,0.82019 0.95756,5.71908 2.82731,10.88641 3.57015,9.86654 7.33982,28.56704 6.4469,31.98155 -0.28813,1.10184 -0.0882,2.00334 0.44433,2.00334 1.11823,0 3.18979,-3.60099 4.43803,-7.71461 0.83232,-2.74292 0.86615,-2.71835 0.9583,0.69627 0.12336,4.57114 -1.39053,8.46817 -4.36685,11.24103 -1.58088,1.47282 -2.25441,3.23974 -2.01296,5.2808 l 0.36286,3.06738 3.49451,-2.95135 c 4.56956,-3.85932 5.42568,-3.72934 2.95864,0.44917 -4.44956,7.53634 -8.99657,9.46595 -17.01107,7.21894 z m 10.89132,-68.63244 c 3.10454,-3.10454 -0.27192,-9.77997 -4.94675,-9.77997 -3.86297,0 -6.34454,6.93501 -3.49958,9.77997 1.71918,1.71918 6.72715,1.71918 8.44633,0 z m -73.01234,65.19814 c -4.52861,-5.1578 -4.79744,-8.89272 -0.33215,-4.61469 1.71438,1.64248 3.39542,2.98632 3.73564,2.98632 1.35781,0 -0.67892,-6.31181 -3.04827,-9.44656 -2.91784,-3.86043 -4.62589,-9.44655 -2.88844,-9.44655 0.63633,0 1.46008,0.95505 1.83056,2.12235 0.37049,1.1673 1.3361,2.67219 2.14581,3.34418 1.18345,0.98218 1.95848,-0.9055 3.95139,-9.62403 1.36356,-5.96522 3.7215,-14.91051 5.23988,-19.87841 1.51838,-4.96791 2.59653,-10.46322 2.39589,-12.2118 -0.30652,-2.67131 -0.98624,-3.28164 -4.25456,-3.82015 -5.53152,-0.91142 -8.61202,-2.8463 -10.57495,-6.6422 -1.19518,-2.31122 -2.53169,-3.30113 -4.45694,-3.30113 -4.18866,0 -3.29751,-1.72051 2.23915,-4.32305 9.30817,-4.37536 16.7221,-2.06613 20.21636,6.29681 0.87861,2.1028 1.78018,3.64058 2.00348,3.41727 0.22331,-0.22331 1.12886,-3.40306 2.01233,-7.06612 3.42404,-14.19681 7.65459,-26.84482 10.33749,-30.90579 2.65241,-4.01485 2.67523,-4.17339 0.42744,-2.97041 -1.30598,0.69894 -4.96081,2.02498 -8.12184,2.94674 -3.16102,0.92177 -6.90307,2.41499 -8.31565,3.31827 -4.08264,2.61067 -5.17458,1.17835 -1.98839,-2.60822 1.64428,-1.95412 5.18519,-4.24223 8.10404,-5.23678 6.22281,-2.12033 15.32582,-2.42085 14.11771,-0.46609 -0.5269,0.85255 -0.21576,1.07466 0.90369,0.64509 4.5054,-1.72889 12.61864,-2.0736 19.47939,-0.82764 10.46748,1.90096 11.12347,2.12953 9.31663,3.24622 -1.16544,0.72028 -1.19814,1.42345 -0.15665,3.36948 1.77392,3.31461 0.68751,4.07016 -2.67992,1.86373 -5.62696,-3.68693 -9.96281,-0.94092 -11.6511,7.37897 -0.66827,3.29321 -1.11475,3.61218 -5.50152,3.93026 -5.94309,0.43093 -9.51026,-1.75472 -11.40196,-6.98614 -1.74746,-4.83251 -2.70851,-4.95098 -3.60971,-0.44495 -1.14009,5.70042 -0.8239,8.75195 0.90685,8.75195 3.24638,0 2.90374,2.4699 -1.46667,10.57235 -2.46119,4.56288 -4.82712,10.17711 -5.25763,12.47606 -0.43051,2.29895 -1.45443,5.78921 -2.27539,7.75613 -0.82095,1.96692 -1.49264,6.58243 -1.49264,10.25668 0,4.12731 -1.03484,9.76877 -2.70773,14.76122 -1.48926,4.44441 -3.05402,10.70633 -3.47726,13.91539 l -0.76952,5.83463 h 4.58861 c 6.61805,0 6.13933,2.81143 -0.69034,4.05429 -4.26643,0.77641 -5.34707,1.43895 -5.63409,3.4543 -0.39537,2.77615 0.40684,2.94433 6.8803,1.44241 4.2922,-0.99585 7.36683,-0.57184 7.36683,1.01591 0,1.56388 -12.39698,5.59213 -17.20984,5.59213 -4.08851,0 -5.29044,-0.57327 -8.23631,-3.92843 z m 11.47477,-65.61094 c 2.56663,-2.56662 2.13149,-5.72954 -1.0775,-7.83216 -3.97404,-2.60389 -8.28967,-0.63825 -8.28967,3.77569 0,1.7246 0.60013,3.73577 1.33363,4.46927 1.87014,1.87014 5.9608,1.65994 8.03354,-0.4128 z m 16.01843,49.65492 c -12.63496,-12.6939 -10.69493,-15.50288 10.73359,-15.54112 12.97642,-0.0231 18.33743,1.26784 18.33743,4.41589 0,3.33128 -15.76305,18.80998 -19.01499,18.672 -1.7103,-0.0726 -5.29215,-2.76065 -10.05603,-7.54677 z m -37.9396,-28.56651 c -5.13885,-2.78631 -7.01724,-11.84714 -3.4977,-16.87198 2.45488,-3.50482 3.44978,-3.06413 2.94002,1.3023 -0.67063,5.74446 2.69498,11.78095 7.75151,13.90294 2.32441,0.97546 4.23129,2.14864 4.2375,2.60707 0.02,1.47667 -8.22437,0.79849 -11.43133,-0.94033 z m 85.90373,0.66249 c 0,-0.61125 0.80018,-1.11136 1.77818,-1.11136 0.978,0 3.47856,-1.70038 5.5568,-3.77862 3.30938,-3.30938 3.77862,-4.48248 3.77862,-9.44656 0,-3.11736 0.42136,-5.66793 0.93636,-5.66793 0.51499,0 1.83593,1.67042 2.93542,3.71204 4.26133,7.91282 -1.53301,17.40379 -10.62521,17.40379 -2.39809,0 -4.36017,-0.50011 -4.36017,-1.11136 z m -68.83698,-35.67602 c -1.49109,-0.59564 -4.11668,-0.77426 -5.83464,-0.39693 -3.96787,0.87149 -4.19358,-1.45671 -0.55167,-5.69069 2.22241,-2.5837 2.90042,-2.81417 4.98962,-1.69606 1.32975,0.71166 3.17307,2.7546 4.09627,4.53987 2.54518,4.92184 2.28469,5.23485 -2.69958,3.24381 z m 58.83475,0.0145 c 0,-2.13138 5.49401,-8.79284 7.25185,-8.79284 1.50385,0 4.9731,5.3334 4.9731,7.64533 0,0.59815 -1.62536,1.01028 -3.61192,0.91585 -1.98655,-0.0944 -4.73717,0.22488 -6.11247,0.70957 -1.71049,0.60283 -2.50056,0.45183 -2.50056,-0.47791 z m -43.34303,-34.10697 c 0,-1.98758 4.23404,-4.79802 8.19736,-5.44117 5.16708,-0.83851 5.4364,1.3972 0.41568,3.45057 -6.00016,2.45394 -8.61304,3.05782 -8.61304,1.9906 z m 25.07897,-1.1293 c -3.01589,-1.04293 -5.68315,-2.52138 -5.92726,-3.28544 -1.03263,-3.2322 10.18449,-0.27321 12.02892,3.17314 1.35638,2.53441 0.9254,2.54234 -6.10166,0.1123 z"
         id="path238" />
      <path
         style="fill:#b26910;stroke-width:1.11136"
         d="m 515.21624,299.18451 c -4.24892,-0.52729 -4.8469,-3.29071 -1.3892,-6.41988 1.22249,-1.10635 2.22272,-3.16671 2.22272,-4.57858 0,-2.17135 2.72992,-4.86798 4.92805,-4.86798 0.34581,0 0.62875,1.5452 0.62875,3.43378 0,2.02653 0.88513,4.18997 2.15978,5.27896 2.85666,2.44055 3.45127,6.28598 0.97489,6.30478 -1.02654,0.008 -2.23514,0.38289 -2.68578,0.83352 -0.45064,0.45065 -1.36113,0.73931 -2.02332,0.64149 -0.66218,-0.0978 -2.82934,-0.37956 -4.81589,-0.62609 z m 13.42961,-0.62182 c -0.30114,-0.47855 0.49239,-2.63262 1.76339,-4.7868 1.271,-2.1542 2.31091,-5.40606 2.31091,-7.22637 0,-2.96527 0.23129,-3.18587 2.22272,-2.12009 1.2225,0.65426 2.22272,1.88808 2.22272,2.74182 0,0.85375 1.50034,2.6206 3.33408,3.92634 3.86049,2.74891 4.5137,6.66815 1.11136,6.66815 -1.22249,0 -2.22272,0.4372 -2.22272,0.97156 0,1.19602 -9.98205,1.03377 -10.74246,-0.17461 z m 21.85606,-22.40691 c -7.21319,-2.02236 -11.1136,-3.74775 -11.1136,-4.91626 0,-1.7611 2.90366,-2.23316 7.36683,-1.19765 6.38856,1.48222 7.08085,1.31336 7.08085,-1.72716 0,-2.18372 -0.56494,-2.7784 -2.63948,-2.7784 -4.82674,0 -9.58548,-1.37146 -9.58548,-2.76251 0,-0.82551 2.29402,-1.64502 5.7509,-2.05443 3.16298,-0.37461 6.13823,-1.30783 6.61163,-2.07382 0.47341,-0.76598 1.01121,2.09644 1.1951,6.36094 0.25886,6.00264 0.71084,7.75366 2.00141,7.75366 1.23984,0 1.7514,-1.56638 1.99624,-6.11248 0.24456,-4.54079 0.90039,-6.55205 2.55063,-7.82207 1.22178,-0.94027 2.92711,-3.69088 3.78961,-6.11248 l 1.56819,-4.40288 0.0488,3.53957 c 0.0634,4.60838 -1.46044,8.48975 -4.4136,11.24103 -1.58088,1.47282 -2.25441,3.23974 -2.01296,5.2808 l 0.36286,3.06738 3.49451,-2.95135 c 4.56956,-3.85932 5.42568,-3.72934 2.95864,0.44917 -4.44956,7.53634 -8.99657,9.46595 -17.01107,7.21894 z m -62.12102,-3.4343 c -4.52861,-5.1578 -4.79744,-8.89272 -0.33215,-4.61469 1.71438,1.64248 3.65359,2.98632 4.30936,2.98632 0.65577,0 1.81032,0.74467 2.56567,1.65481 1.83224,2.2077 3.31489,1.11747 3.47315,-2.55392 0.0811,-1.8816 0.3174,-2.26941 0.63717,-1.04577 0.57502,2.20036 1.37766,2.29695 7.42612,0.89364 4.2922,-0.99585 7.36683,-0.57184 7.36683,1.01591 0,1.56388 -12.39698,5.59213 -17.20984,5.59213 -4.08851,0 -5.29044,-0.57327 -8.23631,-3.92843 z m 3.21896,-5.0366 c 0,-1.26328 -1.21135,-3.88887 -2.69188,-5.83464 -2.86145,-3.76064 -4.85608,-9.65494 -3.26324,-9.64322 0.5247,0.003 1.89185,1.62923 3.03812,3.61192 1.92171,3.32395 2.1538,3.43168 2.97813,1.38218 0.59019,-1.46738 0.92055,0.32657 0.97211,5.27895 0.043,4.12593 -0.17194,7.50168 -0.47757,7.50168 -0.30562,0 -0.55567,-1.03358 -0.55567,-2.29687 z m 7.911,-3.69768 c 0.0723,-1.28735 0.51326,-3.84098 0.97987,-5.67473 l 0.84838,-3.33407 0.13149,3.05623 c 0.12059,2.8028 0.50014,3.05624 4.57693,3.05624 6.57398,0 5.83128,2.76553 -1.11136,4.13826 -5.27492,1.04299 -5.55013,0.97999 -5.42531,-1.24193 z m 16.36324,-7.22174 c -12.63496,-12.6939 -10.69493,-15.50288 10.73359,-15.54112 12.97642,-0.0231 18.33743,1.26784 18.33743,4.41589 0,3.33128 -15.76305,18.80998 -19.01499,18.672 -1.7103,-0.0726 -5.29215,-2.76065 -10.05603,-7.54677 z m 44.2998,-3.46243 c -1.18441,-8.37303 -7.2387,-25.90916 -10.16501,-29.44271 l -2.76112,-3.33408 -0.12267,3.33408 c -0.0675,1.83375 -1.61276,-4.09895 -3.43399,-13.18376 -1.82122,-9.08481 -3.00008,-16.82907 -2.61968,-17.20947 1.03806,-1.03806 4.93806,4.39014 5.71875,7.95962 l 0.68407,3.12767 1.88085,-2.86719 c 4.27427,-6.51575 10.20458,-7.80829 18.51362,-4.03513 6.02454,2.73575 7.09768,4.53675 2.70326,4.53675 -1.86981,0 -3.39967,0.46174 -3.39967,1.02609 0,2.85268 -6.01262,7.91141 -10.19884,8.58081 -2.44162,0.39043 -4.6968,1.38094 -5.01155,2.20114 -0.31473,0.82019 0.9665,5.74378 2.84718,10.94131 3.38346,9.35064 7.45167,29.21582 6.54201,31.94481 -0.25902,0.77707 -0.78876,-0.8339 -1.17721,-3.57994 z m 1.77746,-46.88301 c 2.10874,-2.83514 2.12787,-3.14218 0.36371,-5.83464 -2.41885,-3.69163 -7.62344,-3.88365 -10.0831,-0.37201 -2.29858,3.2817 -2.18229,4.85728 0.56101,7.60058 2.92616,2.92616 6.33054,2.40801 9.15838,-1.39393 z m -10.59487,41.1585 c -1.04148,-5.0367 -1.70289,-9.34834 -1.4698,-9.58142 0.62758,-0.62758 4.22419,16.15666 3.76032,17.54824 -0.2183,0.65494 -1.24905,-2.93013 -2.29052,-7.96682 z M 501.77756,252.2 c 0,-1.52812 0.25225,-2.15326 0.56055,-1.3892 0.30831,0.76406 0.30831,2.01434 0,2.7784 -0.3083,0.76406 -0.56055,0.13892 -0.56055,-1.3892 z m -8.97862,-0.64829 c 0.0533,-1.29468 0.31668,-1.55802 0.67145,-0.67145 0.32104,0.80225 0.28156,1.7608 -0.0877,2.13011 -0.3693,0.36929 -0.63197,-0.28711 -0.58371,-1.45866 z m 9.94292,-4.06307 c -0.0156,-1.06312 0.97155,-4.56391 2.19374,-7.77952 1.22219,-3.2156 2.30979,-8.09706 2.41688,-10.84768 l 0.19473,-5.00112 0.41668,4.54445 c 0.26613,2.90256 -0.59681,7.52015 -2.38847,12.78064 -1.54283,4.5299 -2.81793,7.36636 -2.83356,6.30323 z m -7.16827,-6.40224 c 0.40087,-2.75062 1.94656,-8.71278 3.43486,-13.24925 1.4883,-4.53647 2.55569,-9.7819 2.37198,-11.6565 -0.28841,-2.9429 -0.86524,-3.49585 -4.22379,-4.0489 -5.53118,-0.91082 -8.61193,-2.84574 -10.57495,-6.64181 -1.19518,-2.31122 -2.53169,-3.30113 -4.45694,-3.30113 -4.18866,0 -3.29751,-1.72051 2.23915,-4.32305 9.30817,-4.37536 16.7221,-2.06613 20.21636,6.29681 0.87861,2.1028 1.78018,3.64058 2.00348,3.41727 0.22331,-0.22331 1.12886,-3.40306 2.01233,-7.06612 3.42404,-14.19681 7.65459,-26.84482 10.33749,-30.90579 2.65241,-4.01485 2.67523,-4.17339 0.42744,-2.97041 -1.30598,0.69894 -4.96081,2.02498 -8.12184,2.94674 -3.16102,0.92177 -6.90307,2.41499 -8.31565,3.31827 -4.08264,2.61067 -5.17458,1.17835 -1.98839,-2.60822 1.64428,-1.95412 5.18519,-4.24223 8.10404,-5.23678 6.22281,-2.12033 15.32582,-2.42085 14.11771,-0.46609 -0.5269,0.85255 -0.21576,1.07466 0.90369,0.64509 4.5054,-1.72889 12.61864,-2.0736 19.47939,-0.82764 10.46748,1.90096 11.12347,2.12953 9.31663,3.24622 -1.16544,0.72028 -1.19814,1.42345 -0.15665,3.36948 1.77392,3.31461 0.68751,4.07016 -2.67992,1.86373 -5.62696,-3.68693 -9.96281,-0.94092 -11.6511,7.37897 -0.66827,3.29321 -1.11475,3.61218 -5.50152,3.93026 -5.94309,0.43093 -9.51026,-1.75472 -11.40196,-6.98614 -1.74746,-4.83251 -2.70851,-4.95098 -3.60971,-0.44495 -1.14009,5.70042 -0.8239,8.75195 0.90685,8.75195 3.23834,0 2.90815,2.46173 -1.402,10.45245 -2.42561,4.49694 -4.75121,9.86111 -5.16799,11.92038 -0.91211,4.50661 -4.09466,13.52702 -5.046,14.30204 -0.37515,0.30563 -3.29654,5.80686 -6.49197,12.22496 -5.2855,10.61605 -5.74409,11.2179 -5.08102,6.66816 z m 3.55849,-32.84813 c 4.87429,-3.41409 1.38777,-12.7144 -4.0479,-10.79781 -5.6714,1.9997 -7.21739,6.57209 -3.48433,10.30515 2.67495,2.67496 4.26782,2.77914 7.53223,0.49266 z m 48.25241,22.29021 c 0.0226,-1.83374 0.27172,-2.44936 0.5535,-1.36805 0.28178,1.08132 0.26325,2.58166 -0.0412,3.33408 -0.30444,0.75243 -0.53498,-0.13228 -0.51233,-1.96603 z m -69.45,-2.32953 c -5.13885,-2.78631 -7.01724,-11.84714 -3.4977,-16.87198 2.45488,-3.50482 3.44978,-3.06413 2.94002,1.3023 -0.67063,5.74446 2.69498,11.78095 7.75151,13.90294 2.32441,0.97546 4.23129,2.14864 4.2375,2.60707 0.02,1.47667 -8.22437,0.79849 -11.43133,-0.94033 z m 85.90373,0.66249 c 0,-0.61125 0.80018,-1.11136 1.77818,-1.11136 0.978,0 3.47856,-1.70038 5.5568,-3.77862 3.30938,-3.30938 3.77862,-4.48248 3.77862,-9.44656 0,-3.11736 0.42136,-5.66793 0.93636,-5.66793 0.51499,0 1.83593,1.67042 2.93542,3.71204 4.26133,7.91282 -1.53301,17.40379 -10.62521,17.40379 -2.39809,0 -4.36017,-0.50011 -4.36017,-1.11136 z m -68.83698,-35.67602 c -1.49109,-0.59564 -4.11668,-0.77426 -5.83464,-0.39693 -3.96787,0.87149 -4.19358,-1.45671 -0.55167,-5.69069 2.22241,-2.5837 2.90042,-2.81417 4.98962,-1.69606 1.32975,0.71166 3.17307,2.7546 4.09627,4.53987 2.54518,4.92184 2.28469,5.23485 -2.69958,3.24381 z m 58.83475,0.0145 c 0,-2.13138 5.49401,-8.79284 7.25185,-8.79284 1.50385,0 4.9731,5.3334 4.9731,7.64533 0,0.59815 -1.62536,1.01028 -3.61192,0.91585 -1.98655,-0.0944 -4.73717,0.22488 -6.11247,0.70957 -1.71049,0.60283 -2.50056,0.45183 -2.50056,-0.47791 z m -43.34303,-34.10697 c 0,-1.98758 4.23404,-4.79802 8.19736,-5.44117 5.16708,-0.83851 5.4364,1.3972 0.41568,3.45057 -6.00016,2.45394 -8.61304,3.05782 -8.61304,1.9906 z m 25.07897,-1.1293 c -3.01589,-1.04293 -5.68315,-2.52138 -5.92726,-3.28544 -1.03263,-3.2322 10.18449,-0.27321 12.02892,3.17314 1.35638,2.53441 0.9254,2.54234 -6.10166,0.1123 z"
         id="path236" />
      <path
         style="fill:#905008;stroke-width:1.11136"
         d="m 517.16112,298.88546 c -0.91687,-0.58794 -2.54224,-0.79663 -3.61192,-0.46377 -2.59251,0.80673 -2.5295,-1.83031 0.12496,-5.22935 1.13841,-1.45773 2.4561,-3.90071 2.92819,-5.42883 0.8291,-2.68371 2.43897,-4.39306 4.17069,-4.42843 0.45843,-0.009 0.83352,1.65587 0.83352,3.7005 0,2.30609 0.84389,4.48122 2.22272,5.72905 2.98581,2.70211 2.78739,4.17514 -0.78592,5.83463 -3.55682,1.65184 -3.73874,1.6607 -5.88224,0.2862 z m 16.39255,0.21085 c -3.15729,-0.26772 -4.1676,-0.84296 -4.1676,-2.37293 0,-1.11076 0.75017,-2.64214 1.66704,-3.40307 0.91688,-0.76094 1.66704,-3.10936 1.66704,-5.21869 0,-3.01678 0.40463,-3.75724 1.89616,-3.47 1.04288,0.20083 2.16813,1.44838 2.50055,2.77232 0.33243,1.32393 2.00315,3.5015 3.71272,4.83906 1.70957,1.33755 2.94735,2.91481 2.75062,3.505 -0.19673,0.5902 -0.66777,0.91055 -1.04675,0.7119 -0.37899,-0.19866 -1.61676,0.39277 -2.75062,1.3143 -1.25303,1.01837 -3.69607,1.5369 -6.22916,1.32211 z m -44.87884,-26.41529 c -3.67306,-3.89458 -4.66706,-6.03335 -2.80403,-6.03335 0.51651,0 1.8443,1.00023 2.95065,2.22272 1.10634,1.2225 2.62295,2.22272 3.37024,2.22272 0.74729,0 1.99177,0.76278 2.7655,1.69508 1.2479,1.50361 1.61375,1.50778 3.2391,0.0369 2.25327,-2.03922 14.51939,-3.69911 14.51939,-1.96484 0,1.68733 -11.55168,5.78966 -16.30302,5.78966 -3.14085,0 -4.79475,-0.84832 -7.73783,-3.96889 z m 56.54812,1.6106 c -3.20905,-1.23337 -5.83464,-2.70764 -5.83464,-3.27618 0,-1.54464 6.71523,-1.24768 12.73172,0.56301 5.82755,1.75384 7.40741,1.30191 13.10739,-3.7495 3.45249,-3.05964 3.80503,-2.51889 1.39555,2.14053 -3.62262,7.00538 -10.69964,8.43471 -21.40002,4.32214 z m -45.84359,-10.83598 c 0,-2.09681 0.62965,-2.36477 5.5568,-2.36477 3.05624,0 5.5568,0.4706 5.5568,1.04577 0,1.52032 -1.31622,2.11709 -6.49632,2.94543 -4.20015,0.67162 -4.61728,0.52469 -4.61728,-1.62643 z m 46.67711,1.3492 c -0.91687,-0.30579 -2.37581,-0.78282 -3.24208,-1.06005 -2.75219,-0.88079 0.21701,-2.34685 6.29832,-3.10982 5.69641,-0.71467 5.83464,-0.66528 5.83464,2.08467 0,2.45488 -0.46395,2.8054 -3.61192,2.72893 -1.98656,-0.0482 -4.36209,-0.33793 -5.27896,-0.64373 z m 13.33632,-1.74686 c 0,-1.77636 1.01877,-3.49036 2.74812,-4.62347 1.51146,-0.99035 3.21675,-3.4234 3.78953,-5.40677 0.82026,-2.84038 1.06268,-3.06758 1.14163,-1.06989 0.13831,3.49971 -2.45142,9.26489 -5.30318,11.80583 -2.35926,2.10212 -2.3761,2.09712 -2.3761,-0.7057 z m -70.47255,-2.05238 c -1.58246,-1.88063 -2.87719,-4.16918 -2.87719,-5.08564 0,-2.81188 6.53594,3.12827 6.60666,6.00443 0.0801,3.25711 -0.29304,3.16518 -3.72947,-0.91879 z m 30.82111,-1.30393 c -2.46844,-2.5978 -6.05925,-6.04098 -7.97959,-7.65152 -4.82745,-4.04865 -4.59777,-7.27643 0.67608,-9.50115 3.18153,-1.34208 5.35088,-1.52384 9.16872,-0.76816 2.93937,0.58181 6.65226,0.57827 9.00625,-0.009 4.94586,-1.23301 13.58423,1.1783 14.10722,3.93788 0.45372,2.39443 -15.58929,18.71512 -18.39641,18.71512 -1.15181,0 -4.11384,-2.12547 -6.58227,-4.72328 z m 36.05034,-22.90614 c -2.05206,-6.7408 -4.08063,-11.00678 -6.42984,-13.52161 -2.77371,-2.96926 -3.83785,-5.6465 -5.54804,-13.95816 -1.16383,-5.65632 -2.46051,-11.69931 -2.88151,-13.42886 -0.7613,-3.12759 -0.75272,-3.13337 1.58184,-1.06538 1.29101,1.14359 2.90019,3.75454 3.57595,5.80211 l 1.22865,3.72285 4.19791,-4.41291 c 5.10202,-5.36334 8.15508,-5.61705 16.76701,-1.39337 6.08901,2.98633 6.09882,2.99934 2.55437,3.38962 -2.20158,0.24242 -3.79775,1.14686 -4.18669,2.37233 -1.12118,3.53253 -5.82303,6.94556 -10.41724,7.56178 -2.46868,0.33112 -4.72543,1.21941 -5.01499,1.97398 -0.28955,0.75456 1.14903,5.83258 3.19684,11.28447 3.23818,8.62102 6.12638,21.52082 4.81841,21.52082 -0.24463,0 -1.79383,-4.43145 -3.44267,-9.84767 z m 6.15966,-30.37551 c 2.10874,-2.83514 2.12787,-3.14218 0.36371,-5.83464 -2.41885,-3.69163 -7.62344,-3.88365 -10.0831,-0.37201 -2.29858,3.2817 -2.18229,4.85728 0.56101,7.60058 2.92616,2.92616 6.33054,2.40801 9.15838,-1.39393 z M 496.58941,238.308 c 0.39274,-2.44499 1.71661,-7.23429 2.94195,-10.64288 1.2418,-3.45436 2.07013,-8.10816 1.87147,-10.51431 -0.33438,-4.04986 -0.62992,-4.37331 -4.77801,-5.2294 -4.53144,-0.9352 -10.58177,-5.66572 -10.58177,-8.27349 0,-0.88658 -1.33397,-1.45911 -3.39967,-1.45911 -2.19719,0 -3.13143,-0.43403 -2.64129,-1.22708 1.24,-2.00637 9.6597,-5.3904 13.47705,-5.41667 3.9613,-0.0273 5.95955,1.63712 2.29676,1.91303 -1.28597,0.0969 -3.3174,1.15541 -4.5143,2.35231 -4.89758,4.89757 1.68215,12.44576 7.51656,8.62292 2.81038,-1.84144 3.86234,-6.65973 1.9904,-9.11672 -0.45843,-0.60171 0.29173,0.0763 1.66704,1.50675 1.46077,1.51931 2.50056,3.98865 2.50056,5.93846 0,4.20584 1.79663,3.23752 2.83785,-1.52951 1.83342,-8.39389 8.20793,-29.69536 9.81834,-32.80954 3.97996,-7.6964 12.16137,-10.30786 25.00282,-7.98076 9.40514,1.70438 11.15319,2.26797 9.24084,2.97935 -1.1352,0.42229 -1.05674,1.12877 0.36663,3.30111 2.32019,3.54105 1.47622,4.35884 -2.08815,2.02337 -4.41643,-2.89375 -8.71742,-1.80529 -10.94688,2.77035 -1.04239,2.13936 -1.91928,5.01501 -1.94864,6.39031 -0.0457,2.14245 -0.65461,2.50056 -4.25153,2.50056 -5.43199,0 -8.87151,-2.49162 -11.28532,-8.17517 -1.76184,-4.14841 -2.04615,-4.367 -3.07652,-2.36542 -0.62441,1.21297 -1.42719,4.10373 -1.78396,6.42393 -0.57945,3.7684 -0.34915,4.3324 2.15846,5.28579 1.54392,0.587 2.63733,1.43928 2.42981,1.89395 -0.20753,0.45468 -2.22794,4.39893 -4.4898,8.765 -2.26186,4.36607 -4.71166,10.36742 -5.44399,13.33632 -1.40863,5.71066 -7.92799,20.22011 -12.73091,28.33384 l -2.86986,4.84815 z m -16.78318,-9.42441 c -3.5251,-1.4243 -7.0995,-6.57454 -7.0995,-10.22945 0,-1.78167 0.86328,-4.83992 1.91839,-6.79612 l 1.91839,-3.55673 0.593,5.62219 c 0.71233,6.75371 3.55136,11.45357 7.91325,13.1 1.7688,0.66765 3.21601,1.60437 3.21601,2.08161 0,1.13353 -5.45971,0.99057 -8.45954,-0.2215 z m 84.03199,0.55612 c 0,-0.2932 1.89168,-1.49816 4.20374,-2.67768 5.00801,-2.5549 7.34358,-6.46641 7.4139,-12.41649 0.0625,-5.28923 1.06183,-5.53703 3.47903,-0.86269 3.8097,7.36714 -2.5356,16.4755 -11.48475,16.4858 -1.98655,0.002 -3.61192,-0.23574 -3.61192,-0.52894 z m -67.79294,-36.15402 c -0.91687,-0.5858 -3.5553,-1.07274 -5.86317,-1.0821 l -4.19614,-0.017 1.72412,-3.33408 c 2.08399,-4.03 4.86376,-4.25085 8.24205,-0.65482 2.82099,3.0028 2.89189,6.87614 0.0931,5.08802 z m 57.79486,0.32918 c 0.002,-0.47994 0.99516,-2.49798 2.20639,-4.48454 2.58077,-4.23277 5.80787,-4.67759 8.28436,-1.14191 2.65826,3.7952 2.14515,4.91165 -2.03318,4.42385 -2.06977,-0.24163 -4.82039,0.12644 -6.11248,0.81795 -1.29208,0.6915 -2.34738,0.8646 -2.34509,0.38465 z m -54.46078,-19.88992 c 0,-2.10063 2.95746,-5.20659 6.84713,-7.19096 4.32966,-2.20882 16.49143,-4.32177 16.49143,-2.86516 0,0.91343 -8.40702,5.17619 -10.23581,5.19005 -0.78841,0.006 -4.05906,1.23324 -7.26811,2.72727 -3.20905,1.49402 -5.83464,2.45648 -5.83464,2.1388 z m 11.1136,-14.94313 c 0,-1.48565 4.51253,-4.06142 8.61304,-4.91637 3.9309,-0.81958 4.99325,0.83627 1.66704,2.59837 -3.41506,1.80918 -10.28008,3.35713 -10.28008,2.318 z m 25.65307,-0.88546 c -6.15733,-2.29393 -7.71951,-5.21917 -2.16837,-4.06033 3.53215,0.73735 8.6447,4.39617 7.57163,5.41866 -0.27167,0.25886 -2.70313,-0.35239 -5.40326,-1.35833 z"
         id="path234" />
      <path
         style="fill:#6b491d;stroke-width:1.11136"
         d="m 517.90404,298.73738 c -1.11952,-0.65092 -2.99494,-0.93258 -4.1676,-0.62592 -2.78525,0.72835 -2.76956,-1.64707 0.0276,-4.17846 1.18785,-1.075 2.50096,-3.52804 2.91803,-5.45121 1.23279,-5.6847 5.49906,-7.35968 4.68909,-1.84098 -0.36005,2.45317 0.18863,3.9581 2.09658,5.75052 3.1725,2.98041 3.33354,5.37441 0.36154,5.37441 -1.2225,0 -2.22272,0.50012 -2.22272,1.11136 0,1.40592 -1.11666,1.36379 -3.70252,-0.13972 z m 18.90918,0.52826 c -0.40022,-0.40023 -2.23506,-0.68482 -4.07741,-0.63243 -3.71064,0.10546 -4.26612,-1.45379 -1.71804,-4.82265 0.89743,-1.18651 1.6476,-3.81933 1.66704,-5.8507 0.0275,-2.87313 0.45647,-3.61231 1.9315,-3.32824 1.04288,0.20083 2.16813,1.44838 2.50055,2.77232 0.33243,1.32393 1.97972,3.48308 3.66065,4.7981 3.19891,2.50256 3.96726,4.45234 1.75455,4.45234 -0.71593,0 -2.13182,0.75126 -3.14643,1.66947 -1.0146,0.9182 -2.17219,1.34201 -2.57241,0.94179 z M 492.7112,275.455 c -2.76816,-1.1222 -6.59646,-5.15511 -6.64344,-6.99852 -0.0136,-0.53329 0.60043,-0.46155 1.36449,0.1594 3.33006,2.70636 9.69654,5.64413 10.25905,4.73397 0.82307,-1.33176 12.09439,-3.80488 14.03966,-3.08053 1.94593,0.72458 -7.03165,4.86959 -12.3516,5.70279 -2.13936,0.33508 -5.14004,0.10236 -6.66816,-0.51711 z m 54.71263,-0.9007 c -3.22107,-1.11269 -6.18006,-2.34664 -6.57555,-2.74213 -1.76973,-1.76973 1.24253,-1.98467 8.21447,-0.58616 9.38116,1.88179 10.62193,1.71649 15.59736,-2.07782 l 4.00754,-3.0562 -2.69255,4.11375 c -4.45319,6.80368 -8.6179,7.77992 -18.55127,4.34856 z m -48.04447,-11.24071 c 0,-1.89342 0.74091,-2.22272 5.00112,-2.22272 6.08148,0 6.5136,1.69821 0.83352,3.27565 -5.59407,1.55355 -5.83464,1.51014 -5.83464,-1.05293 z m 46.80366,0.94015 c -4.80828,-1.38261 -3.29248,-2.83561 3.48537,-3.34096 4.85481,-0.36198 5.27896,-0.19204 5.27896,2.11496 0,2.80386 -2.20459,3.11225 -8.76433,1.226 z m 13.20977,-1.41841 c 0,-1.7494 0.92565,-3.26507 2.50055,-4.09445 1.37531,-0.72426 2.86799,-1.8671 3.31707,-2.53966 0.50682,-0.75904 0.82295,-0.49973 0.83352,0.68374 0.009,1.04861 -1.48332,3.44138 -3.31707,5.31727 l -3.33407,3.41072 z m -69.82194,-0.98256 c -3.35493,-3.57117 -3.18525,-5.35479 0.35328,-3.71357 1.74507,0.80938 2.77294,2.20972 2.7784,3.78519 0.0108,3.10507 -0.15081,3.10136 -3.13168,-0.0716 z m 32.69529,-0.26107 c -0.94704,-0.94705 -2.10802,-2.33585 -2.57994,-3.0862 -0.47192,-0.75037 -2.98352,-3.01821 -5.58132,-5.03965 -5.45373,-4.24373 -6.3859,-8.46825 -2.21823,-10.05281 3.31579,-1.26066 26.06259,-1.28486 29.35987,-0.0312 1.42298,0.541 2.58723,1.76342 2.58723,2.71645 0,2.59505 -14.93654,17.21533 -17.58772,17.21533 -1.24189,0 -3.03284,-0.77485 -3.97989,-1.72189 z m 43.88255,-8.92863 c 0.0533,-1.29468 0.31667,-1.55802 0.67143,-0.67145 0.32104,0.80225 0.28157,1.7608 -0.0877,2.13011 -0.36931,0.36929 -0.63197,-0.28711 -0.58371,-1.45866 z m -10.91016,-17.61788 c -1.55222,-5.08182 -3.74554,-9.48988 -5.83463,-11.72625 -1.84109,-1.97089 -3.353,-4.15569 -3.3598,-4.85511 -0.007,-0.69941 -1.17045,-6.39781 -2.58588,-12.6631 -1.41544,-6.26529 -2.13174,-11.39144 -1.59178,-11.39144 0.53997,0 2.13459,2.61221 3.54361,5.8049 2.15862,4.89118 2.67798,5.43905 3.29956,3.48065 0.40572,-1.27834 1.80256,-3.2654 3.10407,-4.4157 l 2.36638,-2.09145 -1.99672,3.10177 c -1.60757,2.49724 -1.75677,3.62841 -0.76552,5.80397 2.34751,5.15221 8.48488,4.70646 11.44871,-0.8315 1.65594,-3.09416 -1.52634,-7.50866 -5.44424,-7.55235 -2.75079,-0.0307 -2.83545,-0.14712 -0.91687,-1.26109 1.60468,-0.93172 3.51617,-0.78522 7.93689,0.60829 6.9667,2.19606 10.21216,5.13203 5.67301,5.13203 -2.09896,0 -3.36843,0.93305 -4.65533,3.42163 -1.78269,3.44734 -7.31691,6.58061 -11.62319,6.58061 -3.52813,0 -3.72154,2.47793 -0.74889,9.59414 2.93228,7.01955 5.74341,18.24518 5.05869,20.20082 -0.23147,0.66111 -1.54009,-2.46226 -2.90807,-6.94082 z m -58.61209,4.37417 c 0.35984,-1.83374 1.94554,-7.40144 3.52377,-12.37265 3.19242,-10.05566 2.92497,-14.85566 -0.82772,-14.85566 -4.17364,0 -9.9878,-3.22778 -11.91543,-6.61495 -1.24215,-2.18268 -2.80224,-3.37572 -4.42025,-3.38026 -4.09752,-0.0115 -2.85963,-1.80157 2.98442,-4.31561 6.05475,-2.60468 8.48321,-2.92315 9.51837,-1.24822 0.37778,0.61125 -0.0153,1.11136 -0.87352,1.11136 -2.83499,0 -5.56289,4.11486 -4.78433,7.21685 1.05999,4.22334 5.34538,5.83258 9.05658,3.40091 2.44828,-1.60418 2.85861,-2.5691 2.47818,-5.8277 -0.40643,-3.4814 -0.29489,-3.68499 1.02786,-1.87603 0.81607,1.11604 1.79071,3.94875 2.16588,6.2949 0.86892,5.43392 2.08065,4.18732 4.09475,-4.21257 1.4852,-6.19412 6.89087,-25.26419 7.8744,-27.77923 0.23904,-0.61125 0.15596,1.54197 -0.18462,4.78493 -0.56253,5.35641 -0.40087,5.95339 1.76559,6.51994 1.31166,0.343 2.38483,1.03429 2.38483,1.53618 0,0.5019 -1.99342,4.5695 -4.42981,9.0391 -2.43639,4.46961 -4.43684,8.98428 -4.44544,10.0326 -0.0365,4.44455 -6.62803,20.38448 -12.84928,31.07246 -2.51845,4.32664 -2.73301,4.47411 -2.14423,1.47365 z M 481.20035,228.8301 c -6.87611,-2.06059 -10.12425,-8.90793 -7.37459,-15.54621 1.96613,-4.74666 3.32641,-4.09224 3.32641,1.60029 0,5.29628 3.61528,10.98855 7.82833,12.32572 2.39181,0.75913 2.99796,2.81957 0.78471,2.66738 -0.76406,-0.0525 -2.81825,-0.52377 -4.56486,-1.04718 z m 83.74923,0.39868 c 0,-0.54527 1.44721,-1.53765 3.216,-2.2053 4.19676,-1.5841 7.11521,-6.1741 7.95655,-12.51366 l 0.67645,-5.09717 1.80224,4.00557 c 2.31121,5.13681 0.93228,10.41015 -3.649,13.95457 -2.17743,1.68463 -10.00224,3.13658 -10.00224,1.85599 z m -11.11359,-35.44243 c 0,-1.83797 4.0429,-7.23176 5.85058,-7.8055 2.40065,-0.76194 4.79383,0.95744 5.59455,4.01941 0.48749,1.86417 0.003,2.18631 -3.28704,2.18631 -2.12233,0 -4.82613,0.51771 -6.00843,1.15046 -1.18231,0.63276 -2.14966,0.83495 -2.14966,0.44932 z m -61.95831,-1.30216 c -4.93449,-0.44444 -5.71438,-1.67728 -3.17621,-5.0209 2.08972,-2.75286 4.59055,-2.41426 7.26315,0.9834 2.33954,2.97424 2.98183,5.00928 1.46986,4.65708 -0.45843,-0.10679 -2.95899,-0.3856 -5.5568,-0.61958 z m 35.35719,-10.02374 c -2.56012,-1.30288 -4.25575,-3.22485 -5.14601,-5.83291 -0.73027,-2.13937 -1.8877,-3.76473 -2.57207,-3.61192 -1.88511,0.42092 -1.49723,-1.3236 1.00021,-4.49858 3.14521,-3.99849 12.78379,-6.12601 19.55215,-4.31575 2.69932,0.72196 6.3715,1.31265 8.1604,1.31265 3.40709,0 5.51455,1.69443 3.1128,2.50275 -1.08951,0.36668 -1.05625,0.88156 0.15145,2.34449 2.24897,2.72426 0.99751,3.19994 -3.07443,1.16859 -3.24775,-1.62019 -3.78718,-1.621 -6.24692,-0.009 -1.54203,1.01037 -3.28225,3.78385 -4.07327,6.49178 -2.04095,6.98679 -4.16622,7.85695 -10.86431,4.4482 z m -27.85551,-8.83125 c 0,-4.03643 12.60391,-10.38345 20.45895,-10.30264 3.22466,0.0332 3.30608,0.13315 1.32799,1.63048 -1.159,0.87732 -5.40996,2.68895 -9.44655,4.02583 -4.0366,1.33689 -8.46452,3.16125 -9.83983,4.05414 -1.37531,0.89289 -2.50056,1.15938 -2.50056,0.59219 z m 12.22496,-15.75995 c 0,-1.44147 6.17117,-3.74266 8.52513,-3.17896 1.5506,0.37131 1.05268,0.9219 -2.09912,2.32113 -4.63452,2.0575 -6.42601,2.29665 -6.42601,0.85783 z m 22.50503,-0.68036 c -1.98655,-0.86344 -3.61192,-1.84409 -3.61192,-2.17922 0,-1.54489 6.70063,-0.37714 9.0456,1.57642 2.46221,2.05122 2.48688,2.18534 0.40096,2.17922 -1.22249,-0.004 -3.84808,-0.71298 -5.83464,-1.57642 z"
         id="path232" />
      <path
         style="fill:#363843;stroke-width:1.11136"
         d="m 518.8729,298.9495 c -0.40238,-0.65107 -1.95236,-1.18376 -3.44441,-1.18376 -3.29923,0 -3.52056,-2.25858 -0.49009,-5.00111 1.22249,-1.10635 2.22272,-3.12307 2.22272,-4.48161 0,-1.35854 0.75017,-3.09266 1.66704,-3.85359 1.4269,-1.18422 1.66704,-0.83247 1.66704,2.4419 0,2.69534 0.82078,4.53908 2.7784,6.24121 2.91361,2.53335 3.76705,5.19659 1.3892,4.33516 -0.76406,-0.2768 -2.21475,0.21421 -3.22375,1.09114 -1.23396,1.07244 -2.07406,1.20688 -2.56615,0.41066 z m 14.68077,-0.87722 c -3.40136,-0.50546 -3.79213,-2.01854 -1.35385,-5.24223 0.89743,-1.18651 1.63169,-3.56204 1.63169,-5.27896 0,-4.08839 2.09721,-4.02708 2.9197,0.0854 0.36081,1.80405 1.80721,3.83095 3.30629,4.63323 3.13537,1.678 3.45967,3.84512 0.72001,4.81147 -1.06968,0.3773 -2.44499,0.85686 -3.05624,1.06566 -0.61125,0.2088 -2.48667,0.17526 -4.1676,-0.0746 z M 492.7112,275.455 c -2.76816,-1.1222 -6.59646,-5.15511 -6.64344,-6.99852 -0.0136,-0.53329 0.60043,-0.46155 1.36449,0.1594 3.33006,2.70636 9.69654,5.64413 10.25905,4.73397 0.82307,-1.33176 12.09439,-3.80488 14.03966,-3.08053 1.94593,0.72458 -7.03165,4.86959 -12.3516,5.70279 -2.13936,0.33508 -5.14004,0.10236 -6.66816,-0.51711 z m 54.71263,-0.9007 c -3.22107,-1.11269 -6.18006,-2.34664 -6.57555,-2.74213 -1.74476,-1.74475 1.20109,-2.03771 7.12659,-0.70872 9.28258,2.08194 11.7416,1.81487 16.46648,-1.7884 l 4.2263,-3.22306 -2.69255,4.11375 c -4.45319,6.80368 -8.6179,7.77992 -18.55127,4.34856 z m -47.29134,-9.74667 c -2.20931,-2.20931 -0.48641,-3.71676 4.24799,-3.71676 2.75062,0 5.00112,0.46642 5.00112,1.03647 0,0.93552 -1.01443,1.37952 -6.74855,2.9537 -0.96108,0.26384 -2.08633,0.14081 -2.50056,-0.27341 z m 46.16221,-0.52495 c -5.09906,-1.47067 -3.39429,-3.19181 3.16144,-3.19181 4.7503,0 5.49121,0.2999 5.49121,2.22272 0,2.48234 -2.45327,2.75711 -8.65265,0.96909 z m -24.02856,-2.69098 c -0.94704,-0.94705 -2.10802,-2.33585 -2.57994,-3.0862 -0.47192,-0.75037 -2.98352,-3.01821 -5.58132,-5.03965 -5.45373,-4.24373 -6.3859,-8.46825 -2.21823,-10.05281 3.31579,-1.26066 26.06259,-1.28486 29.35987,-0.0312 1.42298,0.541 2.58723,1.76342 2.58723,2.71645 0,2.59505 -14.93654,17.21533 -17.58772,17.21533 -1.24189,0 -3.03284,-0.77485 -3.97989,-1.72189 z m 37.12665,0.0548 c 0,-0.91687 0.40581,-1.66704 0.9018,-1.66704 0.49599,0 1.99632,-1.0197 3.33408,-2.26601 1.94867,-1.81547 2.43227,-1.92595 2.43227,-0.55568 0,1.90905 -3.83351,6.15577 -5.55679,6.15577 -0.61125,0 -1.11136,-0.75016 -1.11136,-1.66704 z m -70.90475,-0.77795 c -0.7335,-0.7335 -1.33363,-1.9953 -1.33363,-2.80401 0,-1.12626 0.65026,-1.04433 2.7784,0.35009 1.52812,1.00125 2.77839,2.26307 2.77839,2.80401 0,1.42689 -2.66729,1.20578 -4.22316,-0.35009 z m 77.66065,-8.20553 c 0.0533,-1.29468 0.31667,-1.55802 0.67143,-0.67145 0.32104,0.80225 0.28157,1.7608 -0.0877,2.13011 -0.36931,0.36929 -0.63197,-0.28711 -0.58371,-1.45866 z m -11.20731,-18.82184 c -0.78323,-2.7974 -2.83053,-7.02778 -4.54956,-9.40083 -2.18449,-3.0156 -3.94106,-7.935 -5.8343,-16.33935 -1.48984,-6.6136 -2.53366,-12.21166 -2.3196,-12.44015 0.39436,-0.42094 3.05497,5.23369 4.3788,9.30631 0.6706,2.06303 0.83866,2.00315 2.33934,-0.83352 1.88242,-3.55827 2.68398,-3.95435 1.89474,-0.93627 -0.72416,2.76917 3.51637,7.01452 6.55395,6.56141 1.2764,-0.1904 3.32237,-1.69286 4.5466,-3.33881 2.10874,-2.83514 2.12787,-3.14218 0.36371,-5.83464 -1.02418,-1.5631 -2.63031,-2.84201 -3.56916,-2.84201 -0.93886,0 -1.39679,-0.50195 -1.01763,-1.11544 0.87559,-1.41674 5.40621,-0.33889 11.11107,2.64337 4.39839,2.29929 4.41299,2.32782 1.37907,2.6955 -1.98969,0.24112 -3.61488,1.43227 -4.62847,3.39235 -1.71055,3.30783 -4.67637,5.14172 -10.64259,6.58076 -4.77336,1.15131 -5.45128,3.89948 -2.43972,9.89021 2.30478,4.58476 5.24832,15.70676 4.38535,16.56973 -0.29016,0.29017 -1.16838,-1.76121 -1.9516,-4.55862 z m -56.06403,-1.36787 c 0.83575,-2.90343 2.11877,-7.30962 2.85117,-9.79154 1.82903,-6.1981 0.64513,-10.29433 -3.1996,-11.07048 -6.7356,-1.35974 -8.67843,-2.40056 -10.81178,-5.79208 -1.40588,-2.23503 -3.15372,-3.56065 -4.73033,-3.58764 -3.56286,-0.061 -3.09171,-1.57196 1.11581,-3.57838 5.26038,-2.5085 10.4914,-3.47031 11.34677,-2.08629 0.39989,0.64703 0.0249,1.17642 -0.83331,1.17642 -0.85821,0 -2.44733,0.98007 -3.53139,2.17794 -2.57031,2.84016 -1.47054,7.47358 2.16733,9.1311 3.75049,1.70884 8.35006,-1.29019 8.35006,-5.44445 0,-4.55858 2.27515,-1.49381 3.02142,4.07004 0.34281,2.55583 1.02608,4.24175 1.51838,3.74649 0.4923,-0.49527 2.41897,-6.85626 4.28149,-14.13555 1.86252,-7.27929 3.62857,-13.47724 3.92455,-13.77322 0.29599,-0.29599 0.85349,0.28359 1.2389,1.28795 0.38541,1.00436 1.68914,1.8261 2.89717,1.8261 1.20804,0 2.02973,0.40023 1.82598,0.88938 -0.20375,0.48916 -2.1944,4.61509 -4.42367,9.16872 -2.22928,4.55364 -5.19316,12.03018 -6.58642,16.61454 -2.93485,9.65679 -9.57932,24.44991 -10.98191,24.44991 -0.52808,0 -0.27636,-2.37553 0.55938,-5.27896 z m -16.82107,-3.54833 c -4.93364,-1.17946 -6.04676,-2.08975 -7.85892,-6.42686 -1.81798,-4.35103 -1.15878,-9.38803 1.51951,-11.61081 1.52048,-1.26189 1.66061,-1.157 1.04513,0.7822 -1.54732,4.87519 4.67763,16.08052 8.93329,16.08052 0.80252,0 1.45912,0.50011 1.45912,1.11136 0,1.23213 -0.19975,1.23462 -5.09813,0.0636 z m 82.8933,0.52063 c 0,-0.28992 1.52246,-1.31443 3.38323,-2.27667 4.49598,-2.32497 7.71297,-7.84202 7.76157,-13.3109 0.0369,-4.15031 0.14782,-4.30222 1.67118,-2.28815 2.36728,3.12981 2.0434,9.8002 -0.64158,13.21359 -2.34096,2.97605 -12.1744,6.74173 -12.1744,4.66213 z m -9.58725,-38.09837 c 3.46734,-6.7051 7.58423,-7.38607 9.72166,-1.60804 0.8254,2.23126 0.55864,2.44732 -3.02169,2.44732 -2.15984,0 -4.92469,0.53395 -6.14407,1.18655 -2.1328,1.14143 -2.15393,1.06442 -0.5559,-2.02583 z m -63.48465,1.1369 c -5.15217,-0.46405 -6.01868,-2.11487 -2.69088,-5.12649 2.79336,-2.52796 4.09756,-2.31841 6.77782,1.08899 2.33954,2.97424 2.98183,5.00928 1.46986,4.65708 -0.45843,-0.10679 -2.95899,-0.3856 -5.5568,-0.61958 z m 33.8934,-11.39364 c -1.54186,-1.21283 -3.14929,-3.58335 -3.57206,-5.26782 -0.42278,-1.68448 -1.24609,-3.35774 -1.82958,-3.71835 -1.59589,-0.98632 -0.0777,-3.90864 2.68526,-5.16883 3.58907,-1.63697 10.15046,-3.64433 11.91209,-3.64433 4.24873,0 14.12618,3.93871 15.95387,6.36173 2.56829,3.40488 1.69205,4.34661 -1.87168,2.01156 -5.52363,-3.61922 -11.88339,1.39691 -11.88339,9.37277 0,1.88078 -0.71827,2.25841 -4.29556,2.25841 -2.60133,0 -5.40126,-0.86973 -7.09895,-2.20514 z m -22.9323,-11.45595 c 2.80101,-2.70053 5.75804,-4.24486 9.7791,-5.10722 13.31164,-2.85484 13.04664,-0.71036 -0.51461,4.1645 -4.85878,1.74658 -9.83437,3.5442 -11.05687,3.9947 -1.46278,0.53905 -0.84998,-0.50441 1.79238,-3.05198 z m 8.76554,-11.76535 c 0,-1.44147 6.17117,-3.74266 8.52513,-3.17896 1.5506,0.37131 1.05268,0.9219 -2.09912,2.32113 -4.63452,2.0575 -6.42601,2.29665 -6.42601,0.85783 z m 22.33687,-0.75107 c -4.60328,-1.99787 -3.83491,-3.24708 1.39387,-2.26615 4.38751,0.8231 8.00756,4.02426 4.46717,3.95025 -1.14453,-0.0239 -3.782,-0.78177 -5.86104,-1.6841 z"
         id="path230" />
      <path
         style="fill:#582d05;stroke-width:1.11136"
         d="m 516.87448,297.6718 c -1.07453,-0.62574 -2.44984,-0.83107 -3.05624,-0.4563 -2.01677,1.24643 -1.1376,-2.40763 1.05717,-4.39386 1.18785,-1.075 2.47786,-3.40301 2.8667,-5.17337 0.90609,-4.1254 2.75309,-4.17806 2.75309,-0.0785 0,1.90566 1.0832,4.15796 2.75505,5.72859 l 2.75505,2.58823 -2.88209,1.49525 c -3.39666,1.7622 -3.69665,1.77613 -6.24873,0.28994 z m 16.67919,0.40929 c -3.33288,-0.50489 -3.98143,-2.60943 -1.45124,-4.70929 0.88275,-0.73261 1.77983,-3.16938 1.99351,-5.41504 l 0.38851,-4.08301 1.81599,3.88976 c 0.99879,2.13936 2.85232,4.51913 4.11897,5.28837 1.26664,0.76924 2.30298,1.92401 2.30298,2.56615 0,0.64214 -0.44345,0.89347 -0.98543,0.5585 -0.54199,-0.33497 -1.60345,0.13563 -2.3588,1.04577 -0.75535,0.91014 -1.68722,1.57988 -2.07081,1.48829 -0.38359,-0.0916 -2.07275,-0.37486 -3.75368,-0.6295 z M 492.7112,275.41883 c -2.70138,-1.05995 -6.59359,-5.09057 -6.64344,-6.87967 -0.0136,-0.4878 2.17325,0.62533 4.85965,2.47362 4.63271,3.18739 5.05361,3.27611 8.16899,1.72195 1.80653,-0.90121 5.73494,-1.92438 8.72978,-2.27372 5.12503,-0.59778 5.31563,-0.53055 3.24177,1.14357 -2.12852,1.71823 -11.96527,5.11878 -14.39086,4.97488 -0.65312,-0.0387 -2.43777,-0.56102 -3.96589,-1.16063 z m 54.71263,-0.86453 c -3.22107,-1.11269 -6.18006,-2.34664 -6.57555,-2.74213 -1.74476,-1.74475 1.20109,-2.03771 7.12659,-0.70872 9.28258,2.08194 11.7416,1.81487 16.46648,-1.7884 l 4.2263,-3.22306 -2.69255,4.11375 c -4.45319,6.80368 -8.6179,7.77992 -18.55127,4.34856 z m -47.46085,-10.08414 c -0.39314,-0.63612 -0.40571,-1.65668 -0.0279,-2.26793 0.86773,-1.40401 9.44656,-1.47203 9.44656,-0.0749 0,0.94015 -0.9366,1.34837 -6.85247,2.98668 -1.01824,0.28199 -2.17301,-0.008 -2.56615,-0.64386 z m 46.33172,-0.18748 c -5.09906,-1.47067 -3.39429,-3.19181 3.16144,-3.19181 4.7503,0 5.49121,0.2999 5.49121,2.22272 0,2.48234 -2.45327,2.75711 -8.65265,0.96909 z m -24.02856,-2.69098 c -0.94704,-0.94705 -2.10802,-2.33585 -2.57994,-3.0862 -0.47192,-0.75037 -2.98352,-3.01821 -5.58132,-5.03965 -5.45373,-4.24373 -6.3859,-8.46825 -2.21823,-10.05281 3.31579,-1.26066 26.06259,-1.28486 29.35987,-0.0312 1.42298,0.541 2.58723,1.76342 2.58723,2.71645 0,2.59505 -14.93654,17.21533 -17.58772,17.21533 -1.24189,0 -3.03284,-0.77485 -3.97989,-1.72189 z m 38.23801,0.22039 c 0,-0.78745 1.25027,-2.51884 2.77839,-3.84753 2.85454,-2.48198 3.60856,-1.61279 1.69792,1.95726 -1.34974,2.52201 -4.47631,3.84231 -4.47631,1.89027 z m -72.01611,-0.94349 c -0.7335,-0.7335 -1.33363,-1.9953 -1.33363,-2.80401 0,-1.12626 0.65026,-1.04433 2.7784,0.35009 1.52812,1.00125 2.77839,2.26307 2.77839,2.80401 0,1.42689 -2.66729,1.20578 -4.22316,-0.35009 z m 77.66065,-8.20553 c 0.0533,-1.29468 0.31667,-1.55802 0.67143,-0.67145 0.32104,0.80225 0.28157,1.7608 -0.0877,2.13011 -0.36931,0.36929 -0.63197,-0.28711 -0.58371,-1.45866 z m -66.57833,-21.57891 c 4.632,-14.43216 3.66971,-20.00447 -3.45458,-20.00447 -3.56109,0 -8.50345,-3.47458 -9.52625,-6.69715 -0.44183,-1.39205 -1.68424,-2.19373 -3.39977,-2.19373 -1.48693,0 -2.70351,-0.40749 -2.70351,-0.90552 0,-1.17599 6.23141,-4.13465 10.84021,-5.14691 3.86223,-0.84829 5.19627,0.93227 1.43535,1.91577 -2.5673,0.67137 -4.18575,5.94828 -2.5997,8.47627 0.61176,0.97508 2.42065,2.23917 4.01976,2.80909 3.65299,1.30193 7.42021,-1.68139 7.42021,-5.87618 0,-4.40998 2.28688,-1.25975 3.01244,4.14971 0.7861,5.8608 1.93583,5.81346 3.4796,-0.14327 0.67325,-2.59781 2.29337,-8.8492 3.60026,-13.892 1.30689,-5.04279 2.82148,-9.16872 3.36577,-9.16872 0.54428,0 0.98961,0.50012 0.98961,1.11136 0,0.61125 0.75017,1.11136 1.66704,1.11136 2.40812,0 2.10978,1.39606 -2.08404,9.75214 -2.0631,4.11067 -4.12697,9.22433 -4.58639,11.3637 -0.97417,4.5364 -9.96534,25.46712 -12.24017,28.49412 -1.0127,1.34755 -0.74642,-0.44896 0.76416,-5.15557 z m 54.35167,-1.41743 c -0.76363,-2.30771 -2.60431,-5.64084 -4.09039,-7.40695 -1.87083,-2.22335 -3.49695,-6.81674 -5.28636,-14.93259 -2.50369,-11.35555 -2.25176,-14.97714 0.453,-6.5121 1.75433,5.49046 2.89293,6.56966 3.82683,3.62718 0.71917,-2.26588 0.88111,-2.18666 2.61096,1.27733 2.28675,4.57916 6.71051,5.49493 10.11211,2.09333 3.01087,-3.01087 2.88941,-5.12579 -0.48835,-8.50355 -1.52812,-1.52812 -2.7784,-3.01525 -2.7784,-3.30474 0,-0.96184 6.0497,0.90996 10.55791,3.26666 4.43865,2.32034 4.44069,2.32447 1.3291,2.70032 -1.9932,0.24076 -3.55695,1.34346 -4.33889,3.05962 -1.55804,3.41953 -5.02189,5.6823 -10.17968,6.6499 -5.99841,1.12531 -6.41593,2.95765 -2.69301,11.81848 1.78346,4.24477 3.04262,8.31293 2.79812,9.04035 -0.24448,0.72743 -1.06931,-0.56553 -1.83295,-2.87324 z m -71.86575,-0.7417 c -4.93364,-1.17946 -6.04676,-2.08975 -7.85892,-6.42686 -1.81798,-4.35103 -1.15878,-9.38803 1.51951,-11.61081 1.52048,-1.26189 1.66061,-1.157 1.04513,0.7822 -1.54732,4.87519 4.67763,16.08052 8.93329,16.08052 0.80252,0 1.45912,0.50011 1.45912,1.11136 0,1.23213 -0.19975,1.23462 -5.09813,0.0636 z m 82.8933,0.52063 c 0,-0.28992 1.52246,-1.31443 3.38323,-2.27667 4.49598,-2.32497 7.71297,-7.84202 7.76157,-13.3109 0.0369,-4.15031 0.14782,-4.30222 1.67118,-2.28815 2.36728,3.12981 2.0434,9.8002 -0.64158,13.21359 -2.34096,2.97605 -12.1744,6.74173 -12.1744,4.66213 z m -9.58725,-38.09837 c 3.46734,-6.7051 7.58423,-7.38607 9.72166,-1.60804 0.8254,2.23126 0.55864,2.44732 -3.02169,2.44732 -2.15984,0 -4.92469,0.53395 -6.14407,1.18655 -2.1328,1.14143 -2.15393,1.06442 -0.5559,-2.02583 z m -63.48465,1.1369 c -5.15217,-0.46405 -6.01868,-2.11487 -2.69088,-5.12649 2.79336,-2.52796 4.09756,-2.31841 6.77782,1.08899 2.33954,2.97424 2.98183,5.00928 1.46986,4.65708 -0.45843,-0.10679 -2.95899,-0.3856 -5.5568,-0.61958 z m 33.76851,-11.49188 c -1.61055,-1.26686 -2.92827,-2.76719 -2.92827,-3.33408 0,-0.56688 1.00022,-0.0305 2.22272,1.19203 1.56413,1.56413 3.70453,2.22271 7.22383,2.22271 2.75062,0 5.00112,0.50012 5.00112,1.11136 0,2.08062 -8.47365,1.20377 -11.5194,-1.19202 z m -5.02489,-8.50305 c -1.29632,-1.38772 -1.17616,-1.97377 0.81245,-3.96237 2.90696,-2.90696 3.41918,-2.3333 1.89518,2.12253 -1.02726,3.00347 -1.39023,3.25011 -2.70763,1.83984 z m 10.98749,0.33941 c 0,-3.09165 1.38225,-5.09201 3.51857,-5.09201 1.19318,0 1.86032,-0.50011 1.48255,-1.11136 -0.37777,-0.61125 -1.65756,-1.11136 -2.84399,-1.11136 -1.18642,0 -2.15713,-0.50011 -2.15713,-1.11136 0,-3.15484 16.31825,1.28164 19.31187,5.25037 2.64471,3.50618 1.79354,4.16898 -2.32116,1.80746 -3.18509,-1.82799 -3.49679,-1.8076 -7.96427,0.52098 -5.34019,2.78346 -9.02644,3.12948 -9.02644,0.84728 z m -28.77001,-3.19407 c 2.80101,-2.70053 5.75804,-4.24486 9.7791,-5.10722 13.31164,-2.85484 13.04664,-0.71036 -0.51461,4.1645 -4.85878,1.74658 -9.83437,3.5442 -11.05687,3.9947 -1.46278,0.53905 -0.84998,-0.50441 1.79238,-3.05198 z m 23.70905,1.3393 c -0.41069,-0.6645 -0.311,-1.6439 0.22154,-2.17644 1.31438,-1.31438 4.20719,0.59893 3.24918,2.14902 -0.97083,1.57083 -2.50933,1.58298 -3.47072,0.0274 z m -14.94351,-13.10465 c 0,-1.44147 6.17117,-3.74266 8.52513,-3.17896 1.5506,0.37131 1.05268,0.9219 -2.09912,2.32113 -4.63452,2.0575 -6.42601,2.29665 -6.42601,0.85783 z m 22.33687,-0.75107 c -4.60328,-1.99787 -3.83491,-3.24708 1.39387,-2.26615 4.38751,0.8231 8.00756,4.02426 4.46717,3.95025 -1.14453,-0.0239 -3.782,-0.78177 -5.86104,-1.6841 z"
         id="path228" />
      <path
         style="fill:#2a2d32;stroke-width:1.11136"
         d="m 516.87448,297.6718 c -1.07453,-0.62574 -2.44984,-0.83107 -3.05624,-0.4563 -2.01677,1.24643 -1.1376,-2.40763 1.05717,-4.39386 1.18785,-1.075 2.47786,-3.40301 2.8667,-5.17337 0.90609,-4.1254 2.75309,-4.17806 2.75309,-0.0785 0,1.90566 1.0832,4.15796 2.75505,5.72859 l 2.75505,2.58823 -2.88209,1.49525 c -3.39666,1.7622 -3.69665,1.77613 -6.24873,0.28994 z m 16.67919,0.40929 c -3.33288,-0.50489 -3.98143,-2.60943 -1.45124,-4.70929 0.88275,-0.73261 1.77983,-3.16938 1.99351,-5.41504 l 0.38851,-4.08301 1.81599,3.88976 c 0.99879,2.13936 2.85232,4.51913 4.11897,5.28837 1.26664,0.76924 2.30298,1.92401 2.30298,2.56615 0,0.64214 -0.44345,0.89347 -0.98543,0.5585 -0.54199,-0.33497 -1.60345,0.13563 -2.3588,1.04577 -0.75535,0.91014 -1.68722,1.57988 -2.07081,1.48829 -0.38359,-0.0916 -2.07275,-0.37486 -3.75368,-0.6295 z m -41.86606,-23.94812 c -1.47985,-0.75505 -2.90004,-2.00757 -3.15598,-2.78338 -0.29063,-0.88098 0.93407,-0.5849 3.26205,0.78864 3.52174,2.07788 4.04817,2.10518 9.54195,0.49473 3.19802,-0.93748 6.69172,-1.50547 7.76379,-1.26223 2.2054,0.50039 -8.79692,4.17728 -12.42233,4.15144 -1.26437,-0.009 -3.50963,-0.63415 -4.98948,-1.3892 z m 54.36886,-0.53442 c -6.33228,-2.2342 -3.78297,-3.20831 3.89787,-1.48941 6.79193,1.51997 11.04682,0.97973 14.18192,-1.80067 2.19643,-1.94793 2.21826,-1.93686 0.94957,0.48133 -2.64743,5.04613 -9.72658,6.09101 -19.02936,2.80875 z m -46.67711,-10.28496 c 0,-0.61124 2.12548,-1.0615 4.72328,-1.00058 4.01248,0.0941 4.30516,0.24469 1.94488,1.00058 -3.99949,1.28087 -6.66816,1.28087 -6.66816,0 z m 46.67711,0 c -1.45107,-0.93775 -1.43307,-1.07953 0.13892,-1.09434 0.99328,-0.009 3.36881,-0.32959 5.27896,-0.71162 2.7499,-0.54997 3.473,-0.31859 3.473,1.11136 0,2.05949 -6.04776,2.53197 -8.89088,0.6946 z m -56.67934,-2.7784 c -1.50178,-1.80952 -1.14256,-2.03572 1.57614,-0.99245 0.96686,0.37102 1.75793,1.12118 1.75793,1.66704 0,1.53726 -1.80079,1.17292 -3.33407,-0.67459 z m 71.16193,0.92613 c 0.0192,-0.50937 1.39453,-1.91209 3.05624,-3.11716 l 3.02132,-2.19105 -1.76215,2.68582 c -1.79293,2.73273 -4.37882,4.30413 -4.31541,2.62239 z M 498.9702,233.30688 c 0.36432,-2.13937 1.35559,-5.5762 2.20282,-7.6374 1.89413,-4.60817 2.00105,-11.46191 0.20679,-13.25616 -0.7335,-0.7335 -2.53175,-1.33363 -3.99612,-1.33363 -3.89014,0 -8.8324,-3.29577 -10.31701,-6.87995 -0.81875,-1.97665 -2.16134,-3.1553 -3.65902,-3.21225 -3.43185,-0.13051 5.7034,-4.30941 9.30354,-4.25589 2.73641,0.0407 2.74112,0.0563 0.31109,1.0341 -2.84865,1.14625 -4.48788,6.16835 -2.86018,8.76272 0.61176,0.97508 2.42065,2.23917 4.01976,2.80909 3.66661,1.30678 7.41214,-1.68056 7.43723,-5.93175 0.0134,-2.27016 0.24632,-2.52918 1.09434,-1.21695 0.59253,0.91687 1.08498,4.04257 1.09434,6.946 0.009,2.90342 0.49158,5.27896 1.07159,5.27896 1.10183,0 2.88437,-5.43196 6.83813,-20.838 1.29417,-5.04279 2.79836,-9.16872 3.34265,-9.16872 0.54428,0 0.98961,0.50012 0.98961,1.11136 0,0.61125 0.75017,1.11136 1.66704,1.11136 2.38606,0 2.12937,1.21318 -2.17117,10.26169 -2.11102,4.44166 -4.65377,10.82636 -5.65055,14.18823 -2.51994,8.49903 -11.80355,27.38699 -10.92488,22.22719 z m 54.95183,-3.64015 c -0.76363,-2.30771 -2.60431,-5.64084 -4.09039,-7.40695 -1.87576,-2.22921 -3.50001,-6.83059 -5.31177,-15.04787 -2.56293,-11.6242 -2.21095,-14.20899 0.76454,-5.61448 1.72686,4.9879 4.10528,6.51 4.10787,2.62887 10e-4,-2.23544 0.26978,-2.061 1.94487,1.26457 1.13837,2.25999 3.09387,4.17033 4.72156,4.6125 2.5378,0.6894 2.46253,0.76435 -0.86933,0.86554 -5.56688,0.16906 -6.11477,3.29066 -2.20912,12.5864 1.7706,4.21414 3.01922,8.25724 2.77472,8.98466 -0.24448,0.72743 -1.06931,-0.56553 -1.83295,-2.87324 z m -76.85535,-4.05388 c -2.46913,-2.46912 -3.24451,-4.26907 -3.23157,-7.50168 0.009,-2.33919 0.50181,-5.00325 1.09434,-5.92012 0.81569,-1.2622 1.08146,-0.77647 1.09434,2.00007 0.0233,5.02237 2.76201,9.89819 7.01697,12.4926 l 3.55797,2.16941 -3.14173,0.004 c -1.99447,0.003 -4.32801,-1.18213 -6.39032,-3.24444 z m 92.80908,1.19794 c 4.29733,-2.98107 6.09222,-6.41834 6.18339,-11.84134 0.0698,-4.15287 0.1821,-4.30346 1.70641,-2.28815 4.22038,5.57983 0.11297,14.48063 -7.25918,15.73077 l -3.88976,0.65961 z m -8.26026,-19.06518 c 2.96597,-2.96597 2.80124,-5.07932 -0.66618,-8.54674 l -2.8889,-2.8889 3.32636,0.66527 c 1.82948,0.3659 5.00492,1.39779 7.0565,2.29308 3.12543,1.36392 3.32476,1.64251 1.22958,1.71847 -1.3753,0.0499 -2.50056,0.5524 -2.50056,1.11675 0,1.43282 -5.53413,7.86479 -6.76694,7.86479 -0.55692,0 -0.0123,-1.00023 1.21014,-2.22272 z m -6.66815,-15.35765 c 0,-0.5435 1.27636,-2.3654 2.83635,-4.04866 2.72908,-2.94472 2.91825,-2.98638 5.00112,-1.1014 3.00632,2.72068 2.76555,4.75529 -0.4891,4.13313 -1.45962,-0.27903 -3.71013,0.058 -5.00111,0.74889 -1.29099,0.69092 -2.34726,0.81154 -2.34726,0.26804 z m -66.67806,-2.66285 c -0.002,-1.04817 0.97276,-2.42827 2.166,-3.06687 1.7336,-0.92779 2.62681,-0.67024 4.44544,1.28182 3.15405,3.38548 2.91033,3.80686 -2.166,3.74498 -3.43229,-0.0418 -4.44272,-0.48732 -4.44544,-1.95993 z m 37.3769,-8.7328 c -1.61055,-1.26686 -2.92827,-2.76719 -2.92827,-3.33408 0,-0.56688 1.00022,-0.0305 2.22272,1.19203 1.56413,1.56413 3.70453,2.22271 7.22383,2.22271 2.75062,0 5.00112,0.50012 5.00112,1.11136 0,2.08062 -8.47365,1.20377 -11.5194,-1.19202 z m -5.02489,-8.50305 c -1.29632,-1.38772 -1.17616,-1.97377 0.81245,-3.96237 2.90696,-2.90696 3.41918,-2.3333 1.89518,2.12253 -1.02726,3.00347 -1.39023,3.25011 -2.70763,1.83984 z m -20.13058,-0.2089 c 0,-1.20377 5.00593,-4.88069 8.3352,-6.12231 3.60259,-1.34356 12.74472,-2.59646 12.17089,-1.66799 -0.29027,0.46966 -3.14746,1.71089 -6.34932,2.7583 -3.20187,1.0474 -7.69699,2.84619 -9.98917,3.99732 -2.29218,1.15112 -4.1676,1.61673 -4.1676,1.03468 z m 26.05711,-1.30646 c -0.41069,-0.6645 -0.311,-1.6439 0.22154,-2.17644 1.31438,-1.31438 4.20719,0.59893 3.24918,2.14902 -0.97083,1.57083 -2.50933,1.58298 -3.47072,0.0274 z m 5.45464,-0.43742 c 0.39473,-1.02864 0.71768,-2.07941 0.71768,-2.33504 0,-0.25563 1.02974,-0.46478 2.28831,-0.46478 1.25857,0 1.97922,-0.50011 1.60145,-1.11136 -0.37777,-0.61125 -1.75759,-1.11136 -3.06626,-1.11136 -1.51422,0 -1.99285,-0.38655 -1.31632,-1.06308 0.67653,-0.67653 3.88914,-0.39814 8.83531,0.76562 l 7.77223,1.8287 -5.10897,0.78497 c -2.80993,0.43174 -6.7587,1.63809 -8.77504,2.68078 -3.41829,1.76767 -3.61756,1.76939 -2.94839,0.0256 z m 16.27672,-0.0214 c -1.12629,-1.35709 -1.07038,-1.66704 0.30069,-1.66704 0.92632,0 1.97208,0.75017 2.32393,1.66704 0.35183,0.91687 0.21651,1.66704 -0.3007,1.66704 -0.51722,0 -1.56299,-0.75017 -2.32392,-1.66704 z m -36.67487,-12.30917 c 0,-0.9206 7.95107,-4.00445 8.61439,-3.34113 0.32704,0.32704 -0.10209,0.84161 -0.95365,1.14349 -0.85154,0.30187 -2.92357,1.05144 -4.6045,1.66569 -1.68093,0.61425 -3.05624,0.85363 -3.05624,0.53195 z m 24.80751,-0.83386 c -1.94268,-0.71756 -3.9421,-1.72038 -4.44316,-2.2285 -1.54907,-1.57093 5.65198,0.54958 7.37995,2.17319 1.89711,1.78253 1.74707,1.78535 -2.93679,0.0553 z"
         id="path226" />
      <path
         style="fill:#060401;stroke-width:1.11136"
         d="m 491.68761,274.13297 c -1.47985,-0.75505 -2.90004,-2.00757 -3.15598,-2.78338 -0.28059,-0.85057 1.11852,-0.47607 3.52416,0.94329 5.52285,3.25856 5.23468,4.69877 -0.36818,1.84009 z m 5.92583,0.45421 c 0.84823,-1.37246 7.94119,-3.52152 11.21248,-3.39721 1.71891,0.0653 1.467,0.41212 -1.11136,1.53004 -5.06658,2.19676 -10.98042,3.28991 -10.10112,1.86717 z m 48.44303,-1.02866 c -3.40539,-1.22878 -4.34434,-1.94297 -2.94272,-2.23834 1.8658,-0.39318 9.12212,1.02492 13.14656,2.56923 0.87952,0.33751 3.45944,-0.64877 5.73314,-2.19175 3.6053,-2.44663 3.98436,-2.5258 2.96391,-0.6191 -2.5536,4.77148 -9.8845,5.73335 -18.90089,2.47996 z m -45.56575,-10.24493 c 0,-0.61124 1.87542,-1.0615 4.1676,-1.00058 3.71941,0.0989 3.86881,0.20647 1.3892,1.00058 -3.97261,1.27225 -5.5568,1.27225 -5.5568,0 z m 45.56575,0 c -1.38265,-0.89353 -1.28785,-1.08282 0.55568,-1.10951 1.22249,-0.0177 3.279,-0.31572 4.57001,-0.66224 1.54357,-0.41431 2.57811,-0.0286 3.02136,1.12653 0.52908,1.37875 -0.0954,1.75293 -2.90297,1.73957 -1.96737,-0.009 -4.32721,-0.50181 -5.24408,-1.09435 z m -56.65705,-2.75153 c -0.87659,-1.05623 -0.9609,-1.69391 -0.22396,-1.69391 1.34314,0 2.90909,2.10848 2.13836,2.8792 -0.27973,0.27973 -1.14121,-0.25365 -1.9144,-1.18529 z m 71.13964,0.89926 c 0.0192,-0.50937 1.39453,-1.91209 3.05624,-3.11716 l 3.02132,-2.19105 -1.76215,2.68582 c -1.79293,2.73273 -4.37882,4.30413 -4.31541,2.62239 z m -83.47238,-35.84847 c -2.46913,-2.46912 -3.24451,-4.26907 -3.23157,-7.50168 0.009,-2.33919 0.50181,-5.00325 1.09434,-5.92012 0.81569,-1.2622 1.08146,-0.77647 1.09434,2.00007 0.0233,5.02237 2.76201,9.89819 7.01697,12.4926 l 3.55797,2.16941 -3.14173,0.004 c -1.99447,0.003 -4.32801,-1.18213 -6.39032,-3.24444 z m 92.80908,1.19794 c 4.29733,-2.98107 6.09222,-6.41834 6.18339,-11.84134 0.0698,-4.15287 0.1821,-4.30346 1.70641,-2.28815 4.22038,5.57983 0.11297,14.48063 -7.25918,15.73077 l -3.88976,0.65961 z M 501.86,213.30241 c -0.89485,-1.43289 -2.66824,-2.25834 -4.99061,-2.32295 l -3.60251,-0.10024 3.59012,-1.03725 c 2.08948,-0.60369 4.27744,-2.30382 5.23446,-4.06737 1.61448,-2.97508 1.64516,-2.91405 1.68884,3.36021 0.0245,3.51467 -0.0853,6.39032 -0.24384,6.39032 -0.15859,0 -0.913,-1.00023 -1.67646,-2.22272 z m 46.95332,-1.35722 c -0.41313,-1.64606 -0.24169,-4.38961 0.38098,-6.09677 0.62267,-1.70716 1.17161,-2.30625 1.21987,-1.3313 0.1071,2.16367 3.19087,5.0301 6.20022,5.76323 1.47168,0.35853 1.02095,0.58506 -1.33398,0.67042 -2.11802,0.0768 -3.9934,0.90927 -4.63631,2.05809 -0.94481,1.68827 -1.17342,1.55545 -1.83078,-1.06367 z m -59.13981,-4.16199 c -1.29,-1.20181 -2.66828,-3.20226 -3.06285,-4.44543 -0.41764,-1.31586 -1.73095,-2.29791 -3.14306,-2.35028 -1.85811,-0.0689 -1.38552,-0.58217 2.01977,-2.19358 2.44499,-1.15699 5.43191,-2.11673 6.6376,-2.13275 2.05908,-0.0274 2.04221,0.0759 -0.27784,1.70091 -2.95251,2.06802 -3.25589,6.67309 -0.63072,9.57387 2.44508,2.70177 1.4112,2.59943 -1.5429,-0.15274 z m 72.30919,-0.007 c 2.47357,-3.66311 2.33893,-5.76071 -0.5702,-8.8833 l -2.42573,-2.60371 3.13652,0.78721 c 1.72508,0.43297 4.69208,1.46954 6.59333,2.30349 2.91628,1.27919 3.07752,1.53046 1.03114,1.60694 -1.33412,0.0499 -2.71802,1.01178 -3.07535,2.1376 -0.35732,1.12581 -1.97617,3.25129 -3.59745,4.72328 l -2.94778,2.6763 1.85552,-2.74785 z m -7.03535,-15.38824 c 0,-0.5435 1.27636,-2.3654 2.83635,-4.04866 2.72908,-2.94472 2.91825,-2.98638 5.00112,-1.1014 3.00632,2.72068 2.76555,4.75529 -0.4891,4.13313 -1.45962,-0.27903 -3.71013,0.058 -5.00111,0.74889 -1.29099,0.69092 -2.34726,0.81154 -2.34726,0.26804 z m -66.67806,-2.66285 c -0.002,-1.04817 0.97276,-2.42827 2.166,-3.06687 1.7336,-0.92779 2.62681,-0.67024 4.44544,1.28182 3.15405,3.38548 2.91033,3.80686 -2.166,3.74498 -3.43229,-0.0418 -4.44272,-0.48732 -4.44544,-1.95993 z m 12.22143,-17.44475 c 0,-1.20377 5.00593,-4.88069 8.3352,-6.12231 3.60259,-1.34356 12.74472,-2.59646 12.17089,-1.66799 -0.29027,0.46966 -3.14746,1.71089 -6.34932,2.7583 -3.20187,1.0474 -7.69699,2.84619 -9.98917,3.99732 -2.29218,1.15112 -4.1676,1.61673 -4.1676,1.03468 z m 47.78847,-1.7653 c -1.12629,-1.35709 -1.07038,-1.66704 0.30069,-1.66704 0.92632,0 1.97208,0.75017 2.32393,1.66704 0.35183,0.91687 0.21651,1.66704 -0.3007,1.66704 -0.51722,0 -1.56299,-0.75017 -2.32392,-1.66704 z m -12.78064,-5.52945 -3.33408,-1.53943 3.88976,0.63105 c 2.13937,0.34707 4.63993,1.04716 5.5568,1.55576 2.94336,1.63271 -2.39996,1.06679 -6.11248,-0.64738 z m -23.89423,-6.77972 c 0,-0.9206 7.95107,-4.00445 8.61439,-3.34113 0.32704,0.32704 -0.10209,0.84161 -0.95365,1.14349 -0.85154,0.30187 -2.92357,1.05144 -4.6045,1.66569 -1.68093,0.61425 -3.05624,0.85363 -3.05624,0.53195 z m 24.80751,-0.83386 c -1.94268,-0.71756 -3.9421,-1.72038 -4.44316,-2.2285 -1.54907,-1.57093 5.65198,0.54958 7.37995,2.17319 1.89711,1.78253 1.74707,1.78535 -2.93679,0.0553 z"
         id="path224" />
    </g>
  </g>
</svg>
